<svg xmlns="http://www.w3.org/2000/svg" xmlns:xlink="http://www.w3.org/1999/xlink" width="18" height="18" viewBox="0 0 18 18">
  <defs>
    <clipPath id="clip-path">
      <rect width="18" height="18" fill="none"/>
    </clipPath>
  </defs>
  <g id="fone" clip-path="url(#clip-path)">
    <path id="Caminho_51" data-name="Caminho 51" d="M16.5,10,21,5.5,16.5,1V3.7H12.9V7.3h3.6Zm1.8,4.05a10.224,10.224,0,0,1-3.213-.513.919.919,0,0,0-.918.216l-1.98,1.98A13.541,13.541,0,0,1,6.258,9.8l1.98-1.989a.864.864,0,0,0,.225-.9A10.224,10.224,0,0,1,7.95,3.7a.9.9,0,0,0-.9-.9H3.9a.9.9,0,0,0-.9.9A15.3,15.3,0,0,0,18.3,19a.9.9,0,0,0,.9-.9V14.95A.9.9,0,0,0,18.3,14.05Z" transform="translate(-3 -1)" fill="#333"/>
  </g>
</svg>
