<svg xmlns="http://www.w3.org/2000/svg" width="26.75" height="29.774" viewBox="0 0 26.75 29.774">
  <g id="support_1_" data-name="support (1)" transform="translate(-26)">
    <g id="Grupo_393" data-name="Grupo 393" transform="translate(45.19 23.028)">
      <g id="Grupo_392" data-name="Grupo 392" transform="translate(0)">
        <path id="Caminho_138" data-name="Caminho 138" d="M356.582,396a.582.582,0,1,0,.582.582A.582.582,0,0,0,356.582,396Z" transform="translate(-356 -396)" fill="#333"/>
      </g>
    </g>
    <g id="Grupo_395" data-name="Grupo 395" transform="translate(26)">
      <g id="Grupo_394" data-name="Grupo 394" transform="translate(0)">
        <path id="Caminho_139" data-name="Caminho 139" d="M47.2,21.148l-2.764-.921-.992-1.985a6.369,6.369,0,0,0,1.724-3.369l.124-.742h1.058A1.747,1.747,0,0,0,48.1,12.386V8.723a8.723,8.723,0,0,0-17.446,0v3.664a1.747,1.747,0,0,0,1.163,1.645v.682a1.747,1.747,0,0,0,1.745,1.745h.511a6.309,6.309,0,0,0,.975,1.51c.082.095.168.186.256.276l-.992,1.983-2.764.921A8.571,8.571,0,0,0,26,29.192a.582.582,0,0,0,.582.582H52.168a.582.582,0,0,0,.582-.582A8.571,8.571,0,0,0,47.2,21.148Zm-.269-8.761a.582.582,0,0,1-.582.582h-.888c.148-1.145.246-2.363.286-3.564,0-.034,0-.067,0-.1h1.18ZM32.4,12.968a.582.582,0,0,1-.582-.582V9.3H33q0,.091.006.183v.006h0c.041,1.167.138,2.354.282,3.474H32.4Zm1.163,2.326a.582.582,0,0,1-.582-.582v-.582h.477l.124.742c.024.141.053.282.086.421Zm-.581-7.153H31.837a7.56,7.56,0,0,1,15.075,0H45.771A5.89,5.89,0,0,0,39.9,2.326H38.854A5.89,5.89,0,0,0,32.979,8.141Zm5.875-4.652H39.9a4.729,4.729,0,0,1,4.713,4.734c0,.183,0,.342,0,.487,0,0,0,0,0,.006l-.727-.1a9.344,9.344,0,0,1-5.254-2.627.582.582,0,0,0-.411-.17,5.261,5.261,0,0,0-4.045,1.914A4.727,4.727,0,0,1,38.854,3.489Zm-3.984,11.8a33.238,33.238,0,0,1-.7-5.644l.783-1.044a4.093,4.093,0,0,1,3.027-1.622,10.518,10.518,0,0,0,5.73,2.779l.856.122c-.057,1.214-.174,2.433-.342,3.554h0c-.053.36-.1.592-.2,1.24a4.939,4.939,0,0,1-3.506,3.973,4.575,4.575,0,0,1-5.136-2.2h1.185a1.747,1.747,0,0,0,1.645,1.163h1.163a1.745,1.745,0,1,0,0-3.489H38.212a1.745,1.745,0,0,0-1.646,1.163Zm3.292,4.537a5.833,5.833,0,0,0,2.163.049L39.3,20.966Zm.336,1.981-1.844,1.951a22.157,22.157,0,0,1-1.3-3.019l.693-1.385Zm4.107-2.651.791,1.582a22.15,22.15,0,0,1-1.3,3.02l-1.974-1.974ZM37.63,15.875a.582.582,0,0,1,.582-.582h1.163a.582.582,0,1,1,0,1.163H38.212A.582.582,0,0,1,37.63,15.875ZM27.186,28.611a7.349,7.349,0,0,1,4.728-6.36l2.448-.816a23.311,23.311,0,0,0,1.655,3.59l0,.006h0a23.319,23.319,0,0,0,1.592,2.431l.715,1.148Zm12.189-.518-.789-1.266q-.013-.021-.028-.041a22.173,22.173,0,0,1-1.31-1.958l2.074-2.193,2.185,2.185a22.147,22.147,0,0,1-1.315,1.965C40.163,26.823,40.2,26.763,39.375,28.092Zm1.047.518.715-1.148a23.31,23.31,0,0,0,1.6-2.45L42.749,25v0a23.292,23.292,0,0,0,1.638-3.56l2.448.816a7.349,7.349,0,0,1,4.728,6.36H40.422Z" transform="translate(-26)" fill="#333"/>
      </g>
    </g>
    <g id="Grupo_397" data-name="Grupo 397" transform="translate(47.233 24.138)">
      <g id="Grupo_396" data-name="Grupo 396">
        <path id="Caminho_140" data-name="Caminho 140" d="M393.722,417.208a5.814,5.814,0,0,0-1.646-2,.582.582,0,0,0-.709.922,4.643,4.643,0,0,1,1.315,1.6.582.582,0,0,0,1.041-.52Z" transform="translate(-391.139 -415.089)" fill="#333"/>
      </g>
    </g>
  </g>
</svg>
