<svg xmlns="http://www.w3.org/2000/svg" width="37.023" height="37.108" viewBox="0 0 37.023 37.108">
  <g id="customer-service" transform="translate(-0.572)">
    <g id="Grupo_379" data-name="Grupo 379" transform="translate(0.573 5.985)">
      <g id="Grupo_378" data-name="Grupo 378" transform="translate(0)">
        <path id="Caminho_134" data-name="Caminho 134" d="M30.651,106.335l-1.386-4.157a4.19,4.19,0,0,0-3.225-2.8l-4-.728v-.31a6.024,6.024,0,0,0,1.784-1.584h1.208a1.8,1.8,0,0,0,1.8-1.8V87.781a7.781,7.781,0,0,0-15.561,0v4.19a2.4,2.4,0,0,0,1.909,2.344,6,6,0,0,0,2.879,4.028v.31l-4,.728a4.189,4.189,0,0,0-3.225,2.8l-.239.719-2.039-2.039a.6.6,0,0,1,0-.847l2.364-2.364L4.479,93.21,1.807,95.882a4.19,4.19,0,0,0,0,5.925L9.9,109.9a4.188,4.188,0,0,0,5.906.018l2.915-2.671-.909-.907Zm-5.02-11.372a.6.6,0,0,1-.6.6h-.5a5.945,5.945,0,0,0,.39-1.247,2.371,2.371,0,0,0,.712-.283ZM25.033,93V90.94a1.187,1.187,0,0,1,0,2.061Zm-11.97,0a1.187,1.187,0,0,1,0-2.061Zm0-4.023v.683a2.374,2.374,0,0,0-.6.248V87.781a6.584,6.584,0,0,1,13.167,0v2.128a2.352,2.352,0,0,0-.6-.248v-.683h-.6a6.585,6.585,0,0,1-4.686-1.941l-.7-.7-.7.7a6.585,6.585,0,0,1-4.686,1.941Zm1.2,4.19V90.152a7.76,7.76,0,0,0,4.788-2.127,7.756,7.756,0,0,0,4.788,2.127v3.015a4.752,4.752,0,0,1-.648,2.394H19.048v1.2H22.2a4.781,4.781,0,0,1-7.945-3.591Zm6.584,5.709V98.9l-1.8,1.8-1.8-1.8v-.028a5.98,5.98,0,0,0,3.591,0ZM9.965,102.556a2.994,2.994,0,0,1,2.3-2l4.184-.76,2.6,2.6,2.6-2.6,4.183.76a2.993,2.993,0,0,1,2.3,2l.861,2.581H16.611l-2.331-2.331-2.59,2.343a.611.611,0,0,1-.846,0l-1.307-1.307ZM4.478,94.9l2.745,2.745-.65.65L3.828,95.552Zm10.5,14.148a2.993,2.993,0,0,1-4.232,0l-8.089-8.088a2.993,2.993,0,0,1,0-4.232l.329-.329,2.745,2.745-.022.022a1.8,1.8,0,0,0,0,2.54L10,106a1.786,1.786,0,0,0,1.27.526,1.762,1.762,0,0,0,1.248-.505l.045-.04,2.757,2.757Zm1.227-1.125-2.751-2.751.791-.715,2.747,2.747Z" transform="translate(-0.58 -80)" fill="#333"/>
      </g>
    </g>
    <g id="Grupo_381" data-name="Grupo 381" transform="translate(25.624)">
      <g id="Grupo_380" data-name="Grupo 380">
        <path id="Caminho_135" data-name="Caminho 135" d="M345.6,0h-8.379a1.8,1.8,0,0,0-1.8,1.8V6.584a1.8,1.8,0,0,0,1.8,1.8h1.6l-.619,3.61,5.776-3.61H345.6a1.8,1.8,0,0,0,1.8-1.8V1.8A1.8,1.8,0,0,0,345.6,0Zm.6,6.584a.6.6,0,0,1-.6.6h-1.967l-3.8,2.376.408-2.376h-3.018a.6.6,0,0,1-.6-.6V1.8a.6.6,0,0,1,.6-.6H345.6a.6.6,0,0,1,.6.6Z" transform="translate(-335.428)" fill="#333"/>
      </g>
    </g>
    <g id="Grupo_383" data-name="Grupo 383" transform="translate(28.018 2.394)">
      <g id="Grupo_382" data-name="Grupo 382">
        <rect id="Retângulo_1674" data-name="Retângulo 1674" width="7.182" height="1.197" fill="#333"/>
      </g>
    </g>
    <g id="Grupo_385" data-name="Grupo 385" transform="translate(28.018 4.788)">
      <g id="Grupo_384" data-name="Grupo 384">
        <rect id="Retângulo_1675" data-name="Retângulo 1675" width="4.788" height="1.197" fill="#333"/>
      </g>
    </g>
    <g id="Grupo_387" data-name="Grupo 387" transform="translate(34.003 4.788)">
      <g id="Grupo_386" data-name="Grupo 386">
        <rect id="Retângulo_1676" data-name="Retângulo 1676" width="1.197" height="1.197" fill="#333"/>
      </g>
    </g>
    <g id="Grupo_389" data-name="Grupo 389" transform="translate(0.572 1.796)">
      <g id="Grupo_388" data-name="Grupo 388" transform="translate(0)">
        <path id="Caminho_136" data-name="Caminho 136" d="M19.04,24A16.748,16.748,0,0,0,2.733,36.955L1.6,35.064.572,35.68l2.1,3.506,3.506-2.1-.616-1.026-1.622.973A15.566,15.566,0,0,1,23.651,25.891l.354-1.143A16.748,16.748,0,0,0,19.04,24Z" transform="translate(-0.572 -24)" fill="#333"/>
      </g>
    </g>
    <g id="Grupo_391" data-name="Grupo 391" transform="translate(31.131 11.149)">
      <g id="Grupo_390" data-name="Grupo 390">
        <path id="Caminho_137" data-name="Caminho 137" d="M415.208,151.12l-3.506-2.1-2.1,3.506,1.026.616,1.047-1.746a15.575,15.575,0,0,1-2.638,14.827l.929.754a16.761,16.761,0,0,0,2.868-15.882l1.759,1.055Z" transform="translate(-409.036 -149.016)" fill="#333"/>
      </g>
    </g>
  </g>
</svg>
