<svg xmlns="http://www.w3.org/2000/svg" width="22.998" height="29.997" viewBox="0 0 22.998 29.997">
  <g id="document" transform="translate(-0.109)">
    <path id="Caminho_80" data-name="Caminho 80" d="M.109,57.4v26a.5.5,0,0,0,.5.5h19a.5.5,0,0,0,.5-.5v-21c0-.011-.005-.021-.006-.032a.471.471,0,0,0-.026-.129c-.006-.016-.009-.032-.016-.047a.5.5,0,0,0-.1-.146l-5-5a.485.485,0,0,0-.147-.1l-.046-.016a.5.5,0,0,0-.13-.026c-.008,0-.018,0-.029,0h-14A.5.5,0,0,0,.109,57.4ZM18.4,61.9H15.108V58.609Zm-17.292-4h13v4.5a.5.5,0,0,0,.5.5h4.5v20h-18Zm0,0" transform="translate(0 -53.902)" fill="#333"/>
    <path id="Caminho_81" data-name="Caminho 81" d="M75.006,26v1h1.5a.5.5,0,0,0,.5-.5V.5a.5.5,0,0,0-.5-.5h-19a.5.5,0,0,0-.5.5V2h1V1h18V26Zm0,0" transform="translate(-53.899)" fill="#333"/>
    <path id="Caminho_82" data-name="Caminho 82" d="M75.977,189.668h12v1h-12Zm0,0" transform="translate(-71.868 -179.669)" fill="#333"/>
    <path id="Caminho_83" data-name="Caminho 83" d="M75.977,132.766h4v1h-4Zm0,0" transform="translate(-71.868 -125.766)" fill="#333"/>
    <path id="Caminho_84" data-name="Caminho 84" d="M75.977,246.566h8v1h-8Zm0,0" transform="translate(-71.868 -233.568)" fill="#333"/>
    <path id="Caminho_85" data-name="Caminho 85" d="M246.676,246.566h3v1h-3Zm0,0" transform="translate(-233.568 -233.568)" fill="#333"/>
    <path id="Caminho_86" data-name="Caminho 86" d="M75.977,303.465h12v1h-12Zm0,0" transform="translate(-71.868 -287.466)" fill="#333"/>
    <path id="Caminho_87" data-name="Caminho 87" d="M75.977,417.266h12v1h-12Zm0,0" transform="translate(-71.868 -395.268)" fill="#333"/>
    <path id="Caminho_88" data-name="Caminho 88" d="M161.324,360.367h7.5v1h-7.5Zm0,0" transform="translate(-152.716 -341.369)" fill="#333"/>
    <path id="Caminho_89" data-name="Caminho 89" d="M75.977,360.367h3.5v1h-3.5Zm0,0" transform="translate(-71.868 -341.369)" fill="#333"/>
    <path id="Caminho_90" data-name="Caminho 90" d="M75.977,474.168h2v1h-2Zm0,0" transform="translate(-71.868 -449.17)" fill="#333"/>
    <path id="Caminho_91" data-name="Caminho 91" d="M132.875,474.168h9v1h-9Zm0,0" transform="translate(-125.766 -449.17)" fill="#333"/>
  </g>
</svg>
