<svg xmlns="http://www.w3.org/2000/svg" width="38.281" height="43.163" viewBox="0 0 38.281 43.163">
  <g id="doctor" transform="translate(-28.952)">
    <g id="Grupo_423" data-name="Grupo 423" transform="translate(28.952)">
      <path id="Caminho_167" data-name="Caminho 167" d="M67.206,40.953,65.3,29.774a3.182,3.182,0,0,0-2.23-2.525L57.917,25.7a5.744,5.744,0,0,0-3.986-4.989c.163-.181.314-.361.453-.538a10,10,0,0,0,2.047-4.445h.4A1.876,1.876,0,0,0,58.7,13.85v-.961a1.887,1.887,0,0,0-.971-1.639V8.94a.632.632,0,1,0-1.264,0v2.593a3.9,3.9,0,0,0-.84.243.635.635,0,0,0-.089.04c-.068.031-.136.064-.2.1V6.823a2.555,2.555,0,0,0-2.552-2.552H51.037a2.622,2.622,0,0,0-1.655.591L49.21,5a1.766,1.766,0,0,1-2.235,0l-.171-.14a2.623,2.623,0,0,0-1.655-.591H43.4a2.555,2.555,0,0,0-2.552,2.552v5.094c-.068-.037-.136-.069-.2-.1a.634.634,0,0,0-.089-.04,3.9,3.9,0,0,0-.84-.243V4.976a3.716,3.716,0,0,1,3.712-3.712h9.324a3.716,3.716,0,0,1,3.712,3.712V5.97a.632.632,0,1,0,1.264,0V4.976A4.982,4.982,0,0,0,52.755,0H43.431a4.982,4.982,0,0,0-4.976,4.976v6.275a1.887,1.887,0,0,0-.971,1.639v.961a1.876,1.876,0,0,0,1.874,1.874h.4A10,10,0,0,0,41.8,20.169c.139.176.29.356.452.537A5.765,5.765,0,0,0,38.269,25.7l-5.15,1.554a3.182,3.182,0,0,0-2.23,2.525l-.775,4.54a.632.632,0,0,0,1.246.213l.775-4.54a1.925,1.925,0,0,1,1.349-1.527l4.764-1.437v1.25a3.162,3.162,0,0,0-2.4,1.99,3.206,3.206,0,0,0-.188.858L35.2,37.03a1.607,1.607,0,0,0,1.6,1.731h.788a.632.632,0,1,0,0-1.264H36.8a.342.342,0,0,1-.341-.369l.46-5.909a1.941,1.941,0,0,1,.114-.52,1.911,1.911,0,0,1,1.789-1.218h.119A1.894,1.894,0,0,1,40.7,30.612a1.939,1.939,0,0,1,.148.607l.461,5.909a.342.342,0,0,1-.341.369h-.788a.632.632,0,1,0,0,1.264h.788a1.607,1.607,0,0,0,1.6-1.731l-.461-5.909a3.2,3.2,0,0,0-.244-1,3.129,3.129,0,0,0-2.355-1.851V26.641l2.173-.656c.2.416.589,1.316,1.365,3.256.782,1.957,1.754,4.465,2.686,6.9q.01.031.023.06c.622,1.628,1.226,3.222,1.742,4.6a.632.632,0,0,0,1.184,0c.516-1.375,1.12-2.97,1.742-4.6a.629.629,0,0,0,.023-.06c.932-2.437,1.9-4.944,2.685-6.9S54.3,26.4,54.5,25.985l2.173.656v3.733a3.27,3.27,0,1,0,1.264,0V27.022L62.7,28.459a1.925,1.925,0,0,1,1.349,1.527L65.96,41.166a.628.628,0,0,1-.619.733h-34.5a.628.628,0,0,1-.619-.733l.63-3.689a.632.632,0,0,0-1.246-.213l-.63,3.689a1.891,1.891,0,0,0,1.865,2.21h34.5a1.892,1.892,0,0,0,1.865-2.21ZM56.474,12.821a2.713,2.713,0,0,1,.61-.082.646.646,0,0,0,.309-.073.6.6,0,0,1,.045.224v.961a.611.611,0,0,1-.61.61h-.354V12.821ZM39.711,14.46h-.354a.611.611,0,0,1-.61-.61v-.961a.6.6,0,0,1,.045-.224.645.645,0,0,0,.309.073,2.818,2.818,0,0,1,.61.083V14.46Zm1.264.709V13.508a.887.887,0,0,0,1.14-.85V6.823A1.289,1.289,0,0,1,43.4,5.535h1.745A1.355,1.355,0,0,1,46,5.84l.171.14a3.03,3.03,0,0,0,3.836,0l.171-.14a1.355,1.355,0,0,1,.855-.305h1.745A1.289,1.289,0,0,1,54.07,6.823v5.835a.887.887,0,0,0,1.14.851v1.66a8.175,8.175,0,0,1-1.82,4.219,8.333,8.333,0,0,1-1.515,1.5.633.633,0,0,0-.056.043,6.161,6.161,0,0,1-7.451,0,.64.64,0,0,0-.056-.042,8.34,8.34,0,0,1-1.515-1.5A8.175,8.175,0,0,1,40.975,15.169ZM52.234,25.381l-4.141,3.1-4.141-3.1a3,3,0,0,0,.641-1.79V22.572a7.423,7.423,0,0,0,7,0v1.019A3,3,0,0,0,52.234,25.381ZM42.9,24.675a1.728,1.728,0,0,0-1.066-.054l-.045.012-2.184.659a4.49,4.49,0,0,1,3.726-3.541v1.84A1.671,1.671,0,0,1,42.9,24.675Zm1.715,5.074,0-.009-.1-.24-.017-.043-.091-.229-.006-.016q-.14-.353-.271-.678l-.019-.047-.074-.184-.027-.066-.07-.174-.02-.05-.123-.3-.033-.08-.046-.113-.049-.12-.018-.045-.014-.034q-.11-.266-.208-.5l0,0-.1-.243-.05-.119,3.561,2.662-1.488.632-.008,0-.621.264Zm1.508,3.87-.377-.975q-.3-.764-.565-1.454l.236-.1.964,1.12ZM48.1,38.757a.629.629,0,0,0-.065-.106c-.286-.755-.648-1.71-1.049-2.761l.59-3.231H48.6l.59,3.231C48.774,36.991,48.4,37.986,48.1,38.757Zm.736-7.362h-1.5l-.709-.824,1.457-.619,1.457.619Zm1.6,1.25-.377.975-.257-1.41.964-1.12.236.1Q50.737,31.882,50.442,32.644Zm2.421-6.074-.1.23-.013.031-.1.242-.007.017-.092.222-.017.041-.021.052-.042.1-.052.128-.017.042-.135.333-.022.054-.069.172-.027.068-.073.182-.021.052q-.129.32-.267.668l-.009.023-.091.228-.017.043-.1.241,0,0-.105.266-.622-.264-.006,0-1.489-.633,3.561-2.662ZM54.4,24.634h0a1.727,1.727,0,0,0-1.109.042,1.671,1.671,0,0,1-.431-1.084V21.75a4.455,4.455,0,0,1,3.729,3.543Zm4.905,8.95A2.006,2.006,0,1,1,57.3,31.578,2.009,2.009,0,0,1,59.305,33.584Z" transform="translate(-28.952)" fill="#333"/>
    </g>
  </g>
</svg>
