<svg xmlns="http://www.w3.org/2000/svg" width="18.371" height="14.856" viewBox="0 0 18.371 14.856">
  <g id="three-buildings" transform="translate(0 -46.366)">
    <g id="Grupo_595" data-name="Grupo 595" transform="translate(0 46.366)">
      <path id="Caminho_233" data-name="Caminho 233" d="M131.012,61.222h3.245V57.9h1.951v3.318h3.245V46.366h-8.44Zm4.812-13.105h1.95v1.951h-1.95Zm0,3.135h1.95V53.2h-1.95Zm0,3.135h1.95v1.951h-1.95Zm-3.135-6.269h1.95v1.951h-1.95Zm0,3.135h1.95V53.2h-1.95Zm0,3.135h1.95v1.951h-1.95Z" transform="translate(-126.047 -46.366)" fill="#333"/>
      <path id="Caminho_234" data-name="Caminho 234" d="M373.719,81.482v10.5h1.253v3.021h2.954V81.482Zm2.68,9.078h-1.776V88.784H376.4V90.56Zm0-2.854h-1.776V85.93H376.4v1.776Zm0-2.854h-1.776V83.076H376.4v1.776Z" transform="translate(-359.556 -80.151)" fill="#333"/>
      <path id="Caminho_235" data-name="Caminho 235" d="M0,95.007H2.954V91.987H4.207v-10.5H0ZM1.527,83.076H3.3v1.776H1.527Zm0,2.854H3.3v1.776H1.527Zm0,2.854H3.3V90.56H1.527Z" transform="translate(0 -80.151)" fill="#333"/>
    </g>
  </g>
</svg>
