<svg id="facebook-logo" xmlns="http://www.w3.org/2000/svg" width="9.487" height="17.546" viewBox="0 0 9.487 17.546">
  <path id="Caminho_13" data-name="Caminho 13" d="M31.206,0,28.931,0a4,4,0,0,0-4.208,4.318V6.309H22.435a.358.358,0,0,0-.358.358V9.552a.358.358,0,0,0,.358.358h2.288v7.279a.358.358,0,0,0,.358.358h2.985a.358.358,0,0,0,.358-.358V9.91H31.1a.358.358,0,0,0,.358-.358V6.667a.358.358,0,0,0-.358-.358H28.423V4.621c0-.811.193-1.223,1.25-1.223h1.533a.358.358,0,0,0,.358-.358V.361A.358.358,0,0,0,31.206,0Z" transform="translate(-22.077)" fill="#333"/>
</svg>
