<svg xmlns="http://www.w3.org/2000/svg" width="28.225" height="26.461" viewBox="0 0 28.225 26.461"><defs><style>.a{fill:#333;}</style></defs><g transform="translate(0 -16)"><g transform="translate(21.279 28.128)"><path class="a" d="M386.551,236a.551.551,0,1,0,.551.551A.551.551,0,0,0,386.551,236Z" transform="translate(-386 -236)"/></g><g transform="translate(5.843 28.128)"><path class="a" d="M106.551,236a.551.551,0,1,0,.551.551A.551.551,0,0,0,106.551,236Z" transform="translate(-106 -236)"/></g><g transform="translate(8.6 27.025)"><path class="a" d="M166.474,219.308h-2.756v-2.756a.551.551,0,0,0-.551-.551h-3.308a.551.551,0,0,0-.551.551v2.756h-2.756a.551.551,0,0,0-.551.551v3.308a.551.551,0,0,0,.551.551h2.756v2.756a.551.551,0,0,0,.551.551h3.308a.551.551,0,0,0,.551-.551v-2.756h2.756a.551.551,0,0,0,.551-.551v-3.308A.551.551,0,0,0,166.474,219.308Zm-.551,3.308h-2.756a.551.551,0,0,0-.551.551v2.756H160.41v-2.756a.551.551,0,0,0-.551-.551H157.1V220.41h2.756a.551.551,0,0,0,.551-.551V217.1h2.205v2.756a.551.551,0,0,0,.551.551h2.756Z" transform="translate(-156 -216)"/></g><g transform="translate(0 16)"><path class="a" d="M25.469,22.615h-4.19V19.308A3.311,3.311,0,0,0,17.971,16H10.254a3.311,3.311,0,0,0-3.308,3.308v3.308H2.756A2.759,2.759,0,0,0,0,25.372V39.7a2.759,2.759,0,0,0,2.756,2.756H25.469A2.759,2.759,0,0,0,28.225,39.7V25.372A2.759,2.759,0,0,0,25.469,22.615ZM8.049,19.308A2.208,2.208,0,0,1,10.254,17.1h7.718a2.208,2.208,0,0,1,2.205,2.205v3.308h-1.1V19.859a1.656,1.656,0,0,0-1.654-1.654H10.8a1.656,1.656,0,0,0-1.654,1.654v2.756h-1.1Zm9.923.551v2.756H10.254V19.859a.552.552,0,0,1,.551-.551H17.42A.552.552,0,0,1,17.971,19.859ZM3.638,41.358H2.756A1.656,1.656,0,0,1,1.1,39.7V25.372a1.656,1.656,0,0,1,1.654-1.654h.882Zm19.846,0h-1.1V30.884a.551.551,0,0,0-1.1,0V41.358H6.946V30.884a.551.551,0,0,0-1.1,0V41.358h-1.1V23.718h1.1v2.756a.551.551,0,1,0,1.1,0V23.718H21.279v2.756a.551.551,0,1,0,1.1,0V23.718h1.1ZM27.122,39.7a1.656,1.656,0,0,1-1.654,1.654h-.882V23.718h.882a1.656,1.656,0,0,1,1.654,1.654Z" transform="translate(0 -16)"/></g></g></svg>