<svg xmlns="http://www.w3.org/2000/svg" width="15" height="15" viewBox="0 0 15 15">
  <g id="Grupo_601" data-name="Grupo 601" transform="translate(-308 -289)">
    <circle id="Elipse_37" data-name="Elipse 37" cx="7.5" cy="7.5" r="7.5" transform="translate(308 289)" fill="#909090"/>
    <path id="Caminho_187" data-name="Caminho 187" d="M.4-8.857a6.027,6.027,0,0,1,2.24-.411,2.568,2.568,0,0,1,1.684.509A1.7,1.7,0,0,1,4.94-7.378a1.839,1.839,0,0,1-.113.664,1.372,1.372,0,0,1-.3.479,2.773,2.773,0,0,1-.4.336,4.723,4.723,0,0,1-.436.268q-.218.118-.4.241A1.052,1.052,0,0,0,3-5.1a.683.683,0,0,0-.113.386,1.022,1.022,0,0,0,.06.331l-1.283.215a1.738,1.738,0,0,1-.286-.882,1.08,1.08,0,0,1,.1-.471,1.147,1.147,0,0,1,.271-.366,2.835,2.835,0,0,1,.368-.278q.2-.128.4-.243t.366-.231A1.025,1.025,0,0,0,3.154-6.9a.566.566,0,0,0,.1-.326.731.731,0,0,0-.271-.606,1.2,1.2,0,0,0-.767-.215,3.935,3.935,0,0,0-.722.063,7.956,7.956,0,0,0-.817.208Zm.967,6.114A.89.89,0,0,1,1.633-3.4.908.908,0,0,1,2.3-3.665a.9.9,0,0,1,.664.263.894.894,0,0,1,.263.659.912.912,0,0,1-.266.669.893.893,0,0,1-.661.268.9.9,0,0,1-.664-.268A.908.908,0,0,1,1.367-2.743Z" transform="translate(313.126 302.268)" fill="#fff"/>
  </g>
</svg>
