<svg xmlns="http://www.w3.org/2000/svg" width="29.756" height="29.798" viewBox="0 0 29.756 29.798"><defs><style>.a{fill:#333;}</style></defs><g transform="translate(-0.36 0)"><g transform="translate(0.36 9.67)"><g transform="translate(0)"><path class="a" d="M3.675,166.155H1.081a.721.721,0,1,0,0,1.442H3.675a.721.721,0,1,0,0-1.442Z" transform="translate(-0.36 -166.155)"/></g></g><g transform="translate(26.08 9.67)"><path class="a" d="M445.608,166.155h-2.594a.721.721,0,0,0,0,1.442h2.594a.721.721,0,1,0,0-1.442Z" transform="translate(-442.293 -166.155)"/></g><g transform="translate(3.527 18.773)"><path class="a" d="M57.9,322.774a.721.721,0,0,0-1.019,0l-1.887,1.887a.721.721,0,1,0,1.019,1.019l1.887-1.887A.721.721,0,0,0,57.9,322.774Z" transform="translate(-54.782 -322.563)"/></g><g transform="translate(22.352 0)"><g transform="translate(0 0)"><path class="a" d="M381.3.211a.721.721,0,0,0-1.02,0l-1.835,1.835a.721.721,0,0,0,1.02,1.019L381.3,1.231A.721.721,0,0,0,381.3.211Z" transform="translate(-378.235 0)"/></g></g><g transform="translate(4.847 0)"><path class="a" d="M80.522,2.047,78.688.213a.721.721,0,0,0-1.019,1.019L79.5,3.066a.721.721,0,0,0,1.019-1.02Z" transform="translate(-77.457 -0.002)"/></g><g transform="translate(23.627 18.78)"><path class="a" d="M403.251,324.776l-1.88-1.88a.721.721,0,0,0-1.019,1.019l1.88,1.88a.721.721,0,0,0,1.019-1.019Z" transform="translate(-400.14 -322.684)"/></g><g transform="translate(6.198 1.958)"><path class="a" d="M109.712,33.636a9.265,9.265,0,0,0-9.04,9.456,12.677,12.677,0,0,0,2.382,7.159,9.071,9.071,0,0,1,1.777,5.252v4.532a1.443,1.443,0,0,0,1.442,1.442h6.877a1.443,1.443,0,0,0,1.442-1.442V55.5a9.072,9.072,0,0,1,1.777-5.252,12.677,12.677,0,0,0,2.382-7.159A9.266,9.266,0,0,0,109.712,33.636Zm3.439,26.4h-6.877v-.943h3.439a.721.721,0,1,0,0-1.442h-3.439v-.943h6.878v3.327ZM108.7,46.586l-.964-2.06h3.95l-.964,2.06a.722.722,0,0,0-.066.258l-.559,8.422h-.771l-.559-8.422A.722.722,0,0,0,108.7,46.586Zm6.494,2.828a10.555,10.555,0,0,0-2.042,5.852h-1.611l.544-8.192,1.387-2.963a.721.721,0,0,0-.653-1.026H106.6a.721.721,0,0,0-.653,1.026l1.387,2.963.544,8.192H106.27a10.554,10.554,0,0,0-2.042-5.852,11.365,11.365,0,0,1-2.115-6.322,7.609,7.609,0,1,1,15.2,0A11.363,11.363,0,0,1,115.2,49.414Z" transform="translate(-100.672 -33.636)"/></g></g></svg>