<svg xmlns="http://www.w3.org/2000/svg" width="17.547" height="17.547" viewBox="0 0 17.547 17.547"><defs><style>.a{fill:#333;}</style></defs><path class="a" d="M12.806,0H4.741A4.746,4.746,0,0,0,0,4.741v8.065a4.746,4.746,0,0,0,4.741,4.741h8.065a4.746,4.746,0,0,0,4.741-4.741V4.741A4.746,4.746,0,0,0,12.806,0Zm3.323,12.806a3.327,3.327,0,0,1-3.323,3.323H4.741a3.327,3.327,0,0,1-3.323-3.323V4.741A3.327,3.327,0,0,1,4.741,1.418h8.065a3.327,3.327,0,0,1,3.323,3.323Z"/><g transform="translate(4.873 4.804)"><path class="a" d="M150.012,143.529a3.934,3.934,0,1,0-3.9,4.513A3.989,3.989,0,0,0,146.7,148a3.935,3.935,0,0,0,3.315-4.469Zm-3.523,3.067a2.517,2.517,0,1,1,2.121-2.859A2.5,2.5,0,0,1,146.489,146.6Z" transform="translate(-142.185 -140.171)"/></g><g transform="translate(12.5 3.629)"><path class="a" d="M365.951,106.1a.709.709,0,1,0,.208.5A.714.714,0,0,0,365.951,106.1Z" transform="translate(-364.741 -105.893)"/></g></svg>