<svg xmlns="http://www.w3.org/2000/svg" width="18.219" height="24.292" viewBox="0 0 18.219 24.292">
  <g id="lock" transform="translate(-64)">
    <g id="Grupo_828" data-name="Grupo 828" transform="translate(64)">
      <g id="Grupo_827" data-name="Grupo 827" transform="translate(0)">
        <path id="Caminho_3463" data-name="Caminho 3463" d="M214.161,280.985l-.319,2.871a.506.506,0,0,0,.5.562h2.024a.506.506,0,0,0,.5-.562l-.319-2.871a2,2,0,0,0,.828-1.628,2.024,2.024,0,1,0-4.049,0A2,2,0,0,0,214.161,280.985Zm1.2-2.64a1.009,1.009,0,0,1,.437,1.92.506.506,0,0,0-.283.512l.293,2.63h-.894l.293-2.63a.506.506,0,0,0-.283-.512,1.009,1.009,0,0,1,.437-1.92Z" transform="translate(-206.248 -264.175)" fill="#333"/>
        <path id="Caminho_3464" data-name="Caminho 3464" d="M81.713,9.109H80.195V7.085a7.085,7.085,0,0,0-14.17,0V9.109H64.506A.506.506,0,0,0,64,9.616V22.268a2.026,2.026,0,0,0,2.024,2.024h14.17a2.026,2.026,0,0,0,2.024-2.024V9.616A.506.506,0,0,0,81.713,9.109ZM67.036,7.085a6.073,6.073,0,0,1,12.146,0V9.109H78.17V7.085a5.061,5.061,0,0,0-10.122,0V9.109H67.036Zm10.122,0V9.109h-8.1V7.085a4.049,4.049,0,1,1,8.1,0Zm4.049,15.182a1.013,1.013,0,0,1-1.012,1.012H66.024a1.013,1.013,0,0,1-1.012-1.012V10.122H81.207Z" transform="translate(-64)" fill="#333"/>
      </g>
    </g>
  </g>
</svg>
