<svg id="Componente_1" data-name="Componente 1" xmlns="http://www.w3.org/2000/svg" width="119.252" height="28.206" viewBox="0 0 119.252 28.206">
  <g id="Grupo_1" data-name="Grupo 1" transform="translate(0 0)">
    <path id="Caminho_1" data-name="Caminho 1" d="M5.721,29.506A4.421,4.421,0,0,1,1.3,25.085V5.721A4.421,4.421,0,0,1,5.721,1.3H116.132a4.421,4.421,0,0,1,4.421,4.421V29.506Z" transform="translate(-1.3 -1.3)" fill="#008f58"/>
  </g>
  <g id="Grupo_2" data-name="Grupo 2" transform="translate(8.37 8.04)">
    <path id="Caminho_3" data-name="Caminho 3" d="M184.4,29h3.792l5.664,7.584h-3.792l2.88,3.792h-4.752l-2.88-3.792h1.92L184.4,32.792h2.832Z" transform="translate(-174.896 -29)" fill="#fff" fill-rule="evenodd"/>
    <path id="Caminho_4" data-name="Caminho 4" d="M174.1,29h-3.792L164.6,36.584h3.792l-2.832,3.792h4.752l2.832-3.792h-1.92l2.88-3.792h-2.88Z" transform="translate(-164.6 -29)" fill="#fff" fill-rule="evenodd"/>
  </g>
  <rect id="Retângulo_1" data-name="Retângulo 1" width="0.692" height="13.876" transform="translate(33.68 6.86)" fill="#fff"/>
  <g id="Grupo_37" data-name="Grupo 37" transform="translate(40.637 10.795)">
    <path id="Caminho_11" data-name="Caminho 11" d="M37.032,69.078,34.5,62.6h.942l1.708,4.712.353,1.06.353-1.06L39.624,62.6h.883l-2.532,6.478Z" transform="translate(-34.5 -62.482)" fill="#fff"/>
    <path id="Caminho_12" data-name="Caminho 12" d="M47.5,69.6a2.944,2.944,0,0,1-.825.53l-.883.177a1.708,1.708,0,0,1-1.178-.353,1.237,1.237,0,0,1-.412-.942,1.446,1.446,0,0,1,.589-1.119l.589-.236.707-.118,1.413-.294v-.236a.883.883,0,0,0-.236-.707,1.355,1.355,0,0,0-.883-.294,1.414,1.414,0,0,0-.825.177,1.178,1.178,0,0,0-.412.707l-.766-.118a1.944,1.944,0,0,1,.353-.824,1.531,1.531,0,0,1,.707-.471A3.121,3.121,0,0,1,46.5,65.3l1,.118a1.3,1.3,0,0,1,.53.353,1.237,1.237,0,0,1,.236.53,4.534,4.534,0,0,1,.059.766v1.06a11.251,11.251,0,0,0,.059,1.413,1.767,1.767,0,0,0,.177.589h-.883A1.708,1.708,0,0,1,47.5,69.6Zm-.059-1.767-1.3.294-.707.177-.294.236a.707.707,0,0,0,.118.883,1.06,1.06,0,0,0,.707.236,1.649,1.649,0,0,0,.825-.177,1.237,1.237,0,0,0,.53-.53,1.943,1.943,0,0,0,.118-.825Z" transform="translate(-38.487 -63.592)" fill="#fff"/>
    <path id="Caminho_13" data-name="Caminho 13" d="M53.2,69.078V62.6h.825v6.478Z" transform="translate(-42.187 -62.482)" fill="#fff"/>
    <path id="Caminho_14" data-name="Caminho 14" d="M59.671,68.738l.825.118a2,2,0,0,1-.707,1.119,2.233,2.233,0,0,1-3.593-2,2.591,2.591,0,0,1,.589-1.826,2.061,2.061,0,0,1,1.59-.648,2,2,0,0,1,1.531.648,2.532,2.532,0,0,1,.589,1.826v.236H56.962a1.826,1.826,0,0,0,.412,1.178,1.3,1.3,0,0,0,1,.412,1.237,1.237,0,0,0,.766-.236A1.531,1.531,0,0,0,59.671,68.738Zm-2.591-1.3h2.65a1.59,1.59,0,0,0-.294-.883,1.237,1.237,0,0,0-1-.471,1.3,1.3,0,0,0-.942.353,1.472,1.472,0,0,0-.471,1Z" transform="translate(-43.416 -63.673)" fill="#fff"/>
    <path id="Caminho_15" data-name="Caminho 15" d="M72.4,69.037v-.589a1.472,1.472,0,0,1-1.3.707,1.826,1.826,0,0,1-1.06-.294,2.061,2.061,0,0,1-.707-.883,3,3,0,0,1-.236-1.3,3.357,3.357,0,0,1,.236-1.3,1.826,1.826,0,0,1,.707-.883,1.885,1.885,0,0,1,1.06-.294,1.511,1.511,0,0,1,1.3.648V62.5h.766v6.478Zm-2.533-2.356a2.061,2.061,0,0,0,.353,1.355,1.178,1.178,0,0,0,.883.471,1.119,1.119,0,0,0,.883-.412,2,2,0,0,0,.353-1.3,2.238,2.238,0,0,0-.353-1.413,1.166,1.166,0,0,0-1.826-.059A2.12,2.12,0,0,0,69.864,66.682Z" transform="translate(-48.72 -62.441)" fill="#fff"/>
    <path id="Caminho_16" data-name="Caminho 16" d="M77.593,67.873a2.415,2.415,0,0,1,.707-1.944,2.179,2.179,0,0,1,1.472-.53,2.12,2.12,0,0,1,1.59.648,2.415,2.415,0,0,1,.589,1.767,3.121,3.121,0,0,1-.294,1.413,1.943,1.943,0,0,1-.766.825,2.3,2.3,0,0,1-1.119.295,2.12,2.12,0,0,1-1.59-.648A2.532,2.532,0,0,1,77.593,67.873Zm.825,0a2,2,0,0,0,.412,1.355,1.3,1.3,0,0,0,2,0,2.061,2.061,0,0,0,.412-1.355,1.944,1.944,0,0,0-.412-1.3,1.3,1.3,0,0,0-2,0,2,2,0,0,0-.471,1.3Z" transform="translate(-52.209 -63.633)" fill="#fff"/>
    <path id="Caminho_17" data-name="Caminho 17" d="M90.6,66.916h.825a1.767,1.767,0,0,0,.295.825,1.472,1.472,0,0,0,.648.53,2.473,2.473,0,0,0,1,.177l.883-.118a1.178,1.178,0,0,0,.589-.412.942.942,0,0,0,.177-.53.825.825,0,0,0-.177-.53,1.3,1.3,0,0,0-.589-.412l-1.178-.295-1.237-.412a1.767,1.767,0,0,1-.707-.589,1.472,1.472,0,0,1-.236-.825,1.649,1.649,0,0,1,.294-.942,1.708,1.708,0,0,1,.825-.648,3.122,3.122,0,0,1,1.178-.236,3.239,3.239,0,0,1,1.3.236,1.826,1.826,0,0,1,.825.707,1.944,1.944,0,0,1,.294,1h-.883a1.355,1.355,0,0,0-.471-.942,1.767,1.767,0,0,0-1.119-.294,1.826,1.826,0,0,0-1.119.294.883.883,0,0,0-.353.707.766.766,0,0,0,.236.589,3.415,3.415,0,0,0,1.3.471l1.413.412a1.943,1.943,0,0,1,.825.648,1.59,1.59,0,0,1,.295.942,1.767,1.767,0,0,1-.295,1,1.944,1.944,0,0,1-.825.707,2.945,2.945,0,0,1-1.237.236,3.769,3.769,0,0,1-1.472-.236,2.061,2.061,0,0,1-.942-.883A2.179,2.179,0,0,1,90.6,66.916Z" transform="translate(-57.56 -62.44)" fill="#fff"/>
    <path id="Caminho_18" data-name="Caminho 18" d="M101.2,63.442V62.5h.825v.942Zm0,5.6V64.326h.825v4.712Z" transform="translate(-61.917 -62.441)" fill="#fff"/>
    <path id="Caminho_19" data-name="Caminho 19" d="M104.6,70.229V65.517h.707v.648a1.708,1.708,0,0,1,1.472-.766l.766.177a1.237,1.237,0,0,1,.53.412,1.531,1.531,0,0,1,.236.589,4.587,4.587,0,0,1,.059.766v2.886h-.825V67.343a2.121,2.121,0,0,0-.118-.707.766.766,0,0,0-.353-.412l-.53-.118a1.3,1.3,0,0,0-.883.294,1.59,1.59,0,0,0-.353,1.237v2.591Z" transform="translate(-63.314 -63.633)" fill="#fff"/>
    <path id="Caminho_20" data-name="Caminho 20" d="M112.693,67.873a2.415,2.415,0,0,1,.707-1.944,2.179,2.179,0,0,1,1.472-.53,2.12,2.12,0,0,1,1.59.648,2.415,2.415,0,0,1,.589,1.767,3.121,3.121,0,0,1-.294,1.413,1.944,1.944,0,0,1-.766.825,2.3,2.3,0,0,1-1.119.294,2.12,2.12,0,0,1-1.59-.648A2.532,2.532,0,0,1,112.693,67.873Zm.825,0a2,2,0,0,0,.412,1.355,1.3,1.3,0,0,0,2,0,2.062,2.062,0,0,0,.412-1.355,1.943,1.943,0,0,0-.412-1.3,1.3,1.3,0,0,0-2,0A2,2,0,0,0,113.517,67.873Z" transform="translate(-66.637 -63.633)" fill="#fff"/>
    <path id="Caminho_21" data-name="Caminho 21" d="M121.2,68.734l.766-.118a1.119,1.119,0,0,0,.353.707,1.3,1.3,0,0,0,.825.236,1.236,1.236,0,0,0,.825-.236.648.648,0,0,0,.294-.53.471.471,0,0,0-.236-.412l-.825-.294-1.237-.412a1.178,1.178,0,0,1-.707-1.06,1.237,1.237,0,0,1,.118-.589,1.3,1.3,0,0,1,.412-.471l.53-.236.707-.118a2.71,2.71,0,0,1,1,.177,1.3,1.3,0,0,1,.648.412,1.708,1.708,0,0,1,.294.707l-.766.118a.824.824,0,0,0-.294-.589,1.119,1.119,0,0,0-.707-.177,1.3,1.3,0,0,0-.766.177.53.53,0,0,0-.236.412.412.412,0,0,0,.118.294l.294.236.707.177,1.178.353a1.073,1.073,0,0,1,.707,1.119,1.355,1.355,0,0,1-.236.766,1.531,1.531,0,0,1-.648.53,2.473,2.473,0,0,1-1,.177,2.238,2.238,0,0,1-1.413-.353A1.767,1.767,0,0,1,121.2,68.734Z" transform="translate(-70.138 -63.551)" fill="#fff"/>
    <path id="Caminho_22" data-name="Caminho 22" d="M128.5,69.114l1.885-6.714h.648l-1.885,6.714Z" transform="translate(-73.138 -62.4)" fill="#fff"/>
    <path id="Caminho_23" data-name="Caminho 23" d="M134,69.077V62.6h2.886a3.828,3.828,0,0,1,1.3.177,1.472,1.472,0,0,1,.707.589,1.826,1.826,0,0,1,.295,1,1.649,1.649,0,0,1-.471,1.178,2.238,2.238,0,0,1-1.355.589l.53.294a4.477,4.477,0,0,1,.707.883l1.119,1.767h-1.06l-.883-1.355-.648-.883-.412-.412-.412-.177h-1.472v2.886Zm.883-3.651h1.826l.942-.118a1,1,0,0,0,.53-.412,1.06,1.06,0,0,0,.177-.589.942.942,0,0,0-.353-.766,1.59,1.59,0,0,0-1.06-.294h-2.061Z" transform="translate(-75.399 -62.48)" fill="#fff"/>
    <path id="Caminho_24" data-name="Caminho 24" d="M144.6,66.916h.824a1.768,1.768,0,0,0,.295.825,1.472,1.472,0,0,0,.648.53,2.473,2.473,0,0,0,1,.177l.883-.118a1.178,1.178,0,0,0,.589-.412.942.942,0,0,0,.177-.53.824.824,0,0,0-.177-.53,1.3,1.3,0,0,0-.589-.412l-1.178-.295-1.237-.412a1.767,1.767,0,0,1-.707-.589,1.472,1.472,0,0,1-.236-.825,1.649,1.649,0,0,1,.294-.942,1.708,1.708,0,0,1,.825-.648,3.121,3.121,0,0,1,1.178-.236,3.239,3.239,0,0,1,1.3.236,1.825,1.825,0,0,1,.824.707,1.943,1.943,0,0,1,.294,1h-.825a1.355,1.355,0,0,0-.471-.942,1.767,1.767,0,0,0-1.119-.294,1.826,1.826,0,0,0-1.119.294.883.883,0,0,0-.353.707.765.765,0,0,0,.236.589,3.416,3.416,0,0,0,1.3.471l1.413.412a1.943,1.943,0,0,1,.824.648,1.591,1.591,0,0,1,.294.942,1.767,1.767,0,0,1-.294,1,1.944,1.944,0,0,1-.824.707,2.946,2.946,0,0,1-1.237.236,3.769,3.769,0,0,1-1.472-.236,2.061,2.061,0,0,1-.942-.766A2.179,2.179,0,0,1,144.6,66.916Z" transform="translate(-79.756 -62.44)" fill="#fff"/>
  </g>
</svg>
