<svg xmlns="http://www.w3.org/2000/svg" width="163.05" height="76.004" viewBox="0 0 163.05 76.004"><defs><style>.a{fill:#008f58;}.b,.c{fill:#fff;}.c{fill-rule:evenodd;}</style></defs><g transform="translate(143.45 50.35)"><g transform="translate(-143.45 -50.35)"><path class="a" d="M12.911,75.381A11.611,11.611,0,0,1,1.3,63.77V12.911A11.611,11.611,0,0,1,12.911,1.3H150.887A11.611,11.611,0,0,1,162.5,12.911v62.47Z" transform="translate(-0.374 -0.303)"/><path class="b" d="M150.513,1.894A10.685,10.685,0,0,1,161.2,12.579V74.052H12.537A10.685,10.685,0,0,1,1.852,63.367V12.508A10.685,10.685,0,0,1,12.537,1.823H150.513m0-1.923H12.537A12.537,12.537,0,0,0,0,12.508V63.367A12.537,12.537,0,0,0,12.537,75.9H163.049v-63.4A12.537,12.537,0,0,0,150.513-.029Z" transform="translate(0 0.1)"/><g transform="translate(117.248 20.728)"><path class="c" d="M184.4,29h5.627l8.405,11.255h-5.627l4.274,5.627h-7.052l-4.274-5.627H188.6l-4.2-5.627h4.2Z" transform="translate(-170.296 -29)"/><path class="c" d="M178.7,29h-5.627L164.6,40.255h5.627l-4.2,5.627h7.052l4.2-5.627H174.43l4.274-5.627H174.43Z" transform="translate(-164.6 -29)"/></g><rect class="b" width="0.997" height="40.652" transform="translate(113.259 17.737)"/><g transform="translate(17.666 20.657)"><path class="c" d="M30.855,30.6H24.8v9.545c0,4.63,3.49,6.482,7.835,6.482s7.907-1.638,7.907-6.767V30.6H34.63v9.331c0,1.567-.356,2.564-1.923,2.564s-1.852-1.14-1.852-2.636Z" transform="translate(-24.8 -29.389)"/><path class="c" d="M49.3,47.834H55V41.067c0-.712,0-1.567,1-1.567s1,.926,1,1.638v6.767h5.7V39.642c0-2.279-1.14-3.846-4.131-3.846a3.918,3.918,0,0,0-3.847,2.279h-.071V36.081H49.3Z" transform="translate(-31.848 -30.881)"/><path class="c" d="M71.1,45.853h5.7V34.1H71.1ZM76.8,28.9H71.1v3.918h5.7Z" transform="translate(-38.12 -28.9)"/><path class="c" d="M81.7,47.838h5.7V41.071c0-.712,0-1.567,1-1.567s1,.926,1,1.638v6.767h5.7V41.071c0-.712,0-1.567,1-1.567s1,.926,1,1.638v6.767h5.7V40.786c0-2.279,0-4.986-4.131-4.986-1.425,0-3.419.641-3.775,1.994h-.071c-.427-1.425-2.066-1.994-3.7-1.994a4.029,4.029,0,0,0-3.989,2.279h-.071V36.085H81.7Z" transform="translate(-41.169 -30.885)"/><path class="c" d="M118.456,40.857c-.071-.926.214-2.351,1.567-2.351s1.425,1.425,1.425,2.351Zm7.907,2.493v-.712c0-3.989-1.638-6.838-6.2-6.838s-7.266,1.994-7.266,5.912,2.564,6.34,7.266,6.34a18.092,18.092,0,0,0,5.342-.712v-2.92a8.762,8.762,0,0,1-3.847.712c-1.638,0-3.063-.356-3.134-1.781Z" transform="translate(-50.145 -30.885)"/><path class="c" d="M147.618,45.853V28.9h-5.7v6.7h-.071a3.989,3.989,0,0,0-3.562-1.781c-3.562,0-4.986,2.778-4.986,5.983s1.425,6.34,5.2,6.34a3.633,3.633,0,0,0,3.775-2.422h.071v2.137Zm-5.556-5.912c0,1.14-.214,2.422-1.425,2.422s-1.425-1.282-1.425-2.564.214-2.422,1.425-2.422,1.425,1.211,1.425,2.564Z" transform="translate(-56.013 -28.9)"/></g><rect class="b" width="127.79" height="0.976" transform="translate(17.666 40.673)"/><g transform="translate(24.575 44.52)"><path class="b" d="M37.563,70.435,34.5,62.6h1.14l2.066,5.7.427,1.282L38.56,68.3,40.7,62.6h1.068L38.7,70.435Z" transform="translate(-34.5 -62.458)"/><path class="b" d="M48.189,70.5a3.561,3.561,0,0,1-1,.641l-1.068.214a2.066,2.066,0,0,1-1.425-.427,1.5,1.5,0,0,1-.5-1.14,1.749,1.749,0,0,1,.712-1.353l.712-.285.855-.142,1.71-.356v-.285a1.068,1.068,0,0,0-.285-.855,1.638,1.638,0,0,0-1.068-.356,1.71,1.71,0,0,0-1,.214,1.425,1.425,0,0,0-.5.855l-.926-.142a2.351,2.351,0,0,1,.427-1,1.852,1.852,0,0,1,.855-.57,3.775,3.775,0,0,1,1.282-.214l1.211.142a1.567,1.567,0,0,1,.641.427,1.5,1.5,0,0,1,.285.641,5.484,5.484,0,0,1,.071.926v1.282a13.608,13.608,0,0,0,.071,1.71,2.137,2.137,0,0,0,.214.712H48.4A2.066,2.066,0,0,1,48.189,70.5Zm-.071-2.137-1.567.356-.855.214-.356.285a.855.855,0,0,0,.142,1.068,1.282,1.282,0,0,0,.855.285,2,2,0,0,0,1-.214,1.5,1.5,0,0,0,.641-.641,2.35,2.35,0,0,0,.142-1Z" transform="translate(-37.29 -63.234)"/><path class="b" d="M53.2,70.435V62.6h1v7.835Z" transform="translate(-39.88 -62.458)"/><path class="b" d="M60.4,69.417l1,.142a2.422,2.422,0,0,1-.855,1.353A2.7,2.7,0,0,1,56.2,68.491a3.134,3.134,0,0,1,.712-2.208,2.493,2.493,0,0,1,1.923-.784,2.422,2.422,0,0,1,1.852.784,3.063,3.063,0,0,1,.712,2.208v.285H57.123a2.208,2.208,0,0,0,.5,1.425,1.567,1.567,0,0,0,1.211.5,1.5,1.5,0,0,0,.926-.285A1.852,1.852,0,0,0,60.4,69.417ZM57.266,67.85h3.205a1.923,1.923,0,0,0-.356-1.068,1.5,1.5,0,0,0-1.211-.57,1.567,1.567,0,0,0-1.14.427,1.781,1.781,0,0,0-.57,1.211Z" transform="translate(-40.74 -63.291)"/><path class="b" d="M73.088,70.407v-.712a1.781,1.781,0,0,1-1.567.855,2.208,2.208,0,0,1-1.282-.356,2.493,2.493,0,0,1-.855-1.068,3.633,3.633,0,0,1-.285-1.567,4.061,4.061,0,0,1,.285-1.567,2.208,2.208,0,0,1,.855-1.068,2.28,2.28,0,0,1,1.282-.356,1.828,1.828,0,0,1,1.567.784V62.5h.926v7.835Zm-3.063-2.849a2.493,2.493,0,0,0,.427,1.638,1.425,1.425,0,0,0,1.068.57,1.353,1.353,0,0,0,1.068-.5,2.422,2.422,0,0,0,.427-1.567,2.707,2.707,0,0,0-.427-1.71,1.41,1.41,0,0,0-2.208-.071A2.564,2.564,0,0,0,70.025,67.557Z" transform="translate(-44.453 -62.429)"/><path class="b" d="M77.595,68.391a2.92,2.92,0,0,1,.855-2.351A2.636,2.636,0,0,1,80.23,65.4a2.564,2.564,0,0,1,1.923.784,2.921,2.921,0,0,1,.712,2.137,3.775,3.775,0,0,1-.356,1.71,2.351,2.351,0,0,1-.926,1,2.778,2.778,0,0,1-1.353.356,2.564,2.564,0,0,1-1.923-.784A3.063,3.063,0,0,1,77.595,68.391Zm1,0a2.422,2.422,0,0,0,.5,1.638,1.567,1.567,0,0,0,2.422,0,2.493,2.493,0,0,0,.5-1.638,2.351,2.351,0,0,0-.5-1.567,1.567,1.567,0,0,0-2.422,0,2.422,2.422,0,0,0-.57,1.567Z" transform="translate(-46.894 -63.263)"/><path class="b" d="M90.6,67.842h1a2.137,2.137,0,0,0,.356,1,1.781,1.781,0,0,0,.784.641,2.991,2.991,0,0,0,1.211.214l1.069-.142a1.425,1.425,0,0,0,.712-.5,1.14,1.14,0,0,0,.214-.641,1,1,0,0,0-.214-.641,1.567,1.567,0,0,0-.712-.5l-1.425-.356-1.5-.5a2.137,2.137,0,0,1-.855-.712,1.781,1.781,0,0,1-.285-1,1.994,1.994,0,0,1,.356-1.14,2.066,2.066,0,0,1,1-.784,3.776,3.776,0,0,1,1.425-.285,3.917,3.917,0,0,1,1.567.285,2.208,2.208,0,0,1,1,.855,2.351,2.351,0,0,1,.356,1.211H95.586a1.638,1.638,0,0,0-.57-1.14,2.137,2.137,0,0,0-1.353-.356,2.208,2.208,0,0,0-1.353.356,1.068,1.068,0,0,0-.427.855.926.926,0,0,0,.285.712,4.131,4.131,0,0,0,1.567.57l1.71.5a2.351,2.351,0,0,1,1,.784,1.923,1.923,0,0,1,.356,1.14,2.137,2.137,0,0,1-.356,1.211,2.351,2.351,0,0,1-1,.855,3.562,3.562,0,0,1-1.5.285,4.559,4.559,0,0,1-1.781-.285,2.493,2.493,0,0,1-1.14-1.068A2.636,2.636,0,0,1,90.6,67.842Z" transform="translate(-50.639 -62.428)"/><path class="b" d="M101.2,63.64V62.5h1v1.14Zm0,6.767v-5.7h1v5.7Z" transform="translate(-53.688 -62.429)"/><path class="b" d="M104.6,71.241v-5.7h.855v.784a2.066,2.066,0,0,1,1.781-.926l.926.214a1.5,1.5,0,0,1,.641.5,1.852,1.852,0,0,1,.285.712,5.548,5.548,0,0,1,.071.926v3.49h-1V67.75a2.565,2.565,0,0,0-.142-.855.926.926,0,0,0-.427-.5l-.641-.142a1.567,1.567,0,0,0-1.068.356,1.923,1.923,0,0,0-.427,1.5v3.134Z" transform="translate(-54.666 -63.263)"/><path class="b" d="M112.695,68.391a2.92,2.92,0,0,1,.855-2.351,2.636,2.636,0,0,1,1.781-.641,2.564,2.564,0,0,1,1.923.784,2.92,2.92,0,0,1,.712,2.137,3.774,3.774,0,0,1-.356,1.71,2.351,2.351,0,0,1-.926,1,2.778,2.778,0,0,1-1.353.356,2.564,2.564,0,0,1-1.923-.784A3.063,3.063,0,0,1,112.695,68.391Zm1,0a2.422,2.422,0,0,0,.5,1.638,1.567,1.567,0,0,0,2.422,0,2.493,2.493,0,0,0,.5-1.638,2.351,2.351,0,0,0-.5-1.567,1.567,1.567,0,0,0-2.422,0A2.422,2.422,0,0,0,113.692,68.391Z" transform="translate(-56.992 -63.263)"/><path class="b" d="M121.2,69.474l.926-.142a1.353,1.353,0,0,0,.427.855,1.567,1.567,0,0,0,1,.285,1.5,1.5,0,0,0,1-.285.784.784,0,0,0,.356-.641.57.57,0,0,0-.285-.5l-1-.356-1.5-.5a1.424,1.424,0,0,1-.855-1.282,1.5,1.5,0,0,1,.142-.712,1.566,1.566,0,0,1,.5-.57l.641-.285.855-.142a3.278,3.278,0,0,1,1.211.214,1.567,1.567,0,0,1,.784.5,2.066,2.066,0,0,1,.356.855l-.926.142a1,1,0,0,0-.356-.712,1.354,1.354,0,0,0-.855-.214,1.567,1.567,0,0,0-.926.214.641.641,0,0,0-.285.5.5.5,0,0,0,.142.356l.356.285.855.214,1.425.427a1.3,1.3,0,0,1,.855,1.353,1.638,1.638,0,0,1-.285.926,1.852,1.852,0,0,1-.784.641,2.991,2.991,0,0,1-1.211.214,2.706,2.706,0,0,1-1.71-.427A2.137,2.137,0,0,1,121.2,69.474Z" transform="translate(-59.442 -63.205)"/><path class="b" d="M128.5,70.52l2.279-8.12h.784l-2.279,8.12Z" transform="translate(-61.542 -62.4)"/><path class="b" d="M134,70.434V62.6h3.49a4.63,4.63,0,0,1,1.567.214,1.781,1.781,0,0,1,.855.712,2.208,2.208,0,0,1,.356,1.211,2,2,0,0,1-.57,1.425,2.707,2.707,0,0,1-1.638.712l.641.356a5.414,5.414,0,0,1,.855,1.068l1.353,2.137h-1.282L138.559,68.8l-.784-1.068-.5-.5-.5-.214H135v3.49Zm1.068-4.416h2.208l1.14-.142a1.211,1.211,0,0,0,.641-.5,1.282,1.282,0,0,0,.214-.712,1.14,1.14,0,0,0-.427-.926,1.923,1.923,0,0,0-1.282-.356h-2.493Z" transform="translate(-63.124 -62.456)"/><path class="b" d="M144.6,67.842h1a2.138,2.138,0,0,0,.356,1,1.781,1.781,0,0,0,.784.641,2.991,2.991,0,0,0,1.211.214l1.068-.142a1.424,1.424,0,0,0,.712-.5,1.14,1.14,0,0,0,.214-.641,1,1,0,0,0-.214-.641,1.567,1.567,0,0,0-.712-.5l-1.425-.356-1.5-.5a2.137,2.137,0,0,1-.855-.712,1.78,1.78,0,0,1-.285-1,2,2,0,0,1,.356-1.14,2.066,2.066,0,0,1,1-.784,3.775,3.775,0,0,1,1.425-.285,3.917,3.917,0,0,1,1.567.285,2.207,2.207,0,0,1,1,.855,2.35,2.35,0,0,1,.356,1.211h-1a1.638,1.638,0,0,0-.57-1.14,2.137,2.137,0,0,0-1.353-.356,2.208,2.208,0,0,0-1.353.356,1.068,1.068,0,0,0-.427.855.926.926,0,0,0,.285.712,4.131,4.131,0,0,0,1.567.57l1.71.5a2.35,2.35,0,0,1,1,.784,1.924,1.924,0,0,1,.356,1.14,2.137,2.137,0,0,1-.356,1.211,2.351,2.351,0,0,1-1,.855,3.563,3.563,0,0,1-1.5.285,4.559,4.559,0,0,1-1.781-.285,2.493,2.493,0,0,1-1.14-.926A2.635,2.635,0,0,1,144.6,67.842Z" transform="translate(-66.174 -62.428)"/></g></g></g></svg>