<svg xmlns="http://www.w3.org/2000/svg" width="17.727" height="12.603" viewBox="0 0 17.727 12.603">
  <g id="mail" transform="translate(0 -4.482)">
    <g id="Grupo_486" data-name="Grupo 486" transform="translate(3.088 10.558)">
      <path id="Caminho_196" data-name="Caminho 196" d="M22.43,18.769a.283.283,0,0,1-.2-.078l-3.289-3.086a.286.286,0,1,1,.392-.416l3.289,3.086a.286.286,0,0,1-.2.494Z" transform="translate(-11.165 -15.111)" fill="#333"/>
      <path id="Caminho_197" data-name="Caminho 197" d="M5.688,18.769a.286.286,0,0,1-.2-.494l3.29-3.086a.286.286,0,1,1,.392.416l-3.29,3.086A.283.283,0,0,1,5.688,18.769Z" transform="translate(-5.402 -15.112)" fill="#333"/>
    </g>
    <path id="Caminho_198" data-name="Caminho 198" d="M16.3,17.084H1.429A1.431,1.431,0,0,1,0,15.655V5.911A1.431,1.431,0,0,1,1.429,4.482H16.3a1.431,1.431,0,0,1,1.429,1.429v9.744A1.431,1.431,0,0,1,16.3,17.084ZM1.429,5.054a.858.858,0,0,0-.857.857v9.744a.858.858,0,0,0,.857.857H16.3a.858.858,0,0,0,.857-.857V5.911a.858.858,0,0,0-.857-.857Z" fill="#333"/>
    <path id="Caminho_199" data-name="Caminho 199" d="M9.146,12.561A1.6,1.6,0,0,1,8.1,12.182L.756,5.78a.286.286,0,1,1,.376-.431l7.34,6.4a1.07,1.07,0,0,0,1.347,0l7.33-6.392a.286.286,0,0,1,.376.431L10.2,12.182A1.6,1.6,0,0,1,9.146,12.561Z" transform="translate(-0.282 -0.341)" fill="#333"/>
  </g>
</svg>
