<svg xmlns="http://www.w3.org/2000/svg" width="37" height="37" viewBox="0 0 37 37">
  <g id="medical-history" transform="translate(-0.002)">
    <g id="Grupo_373" data-name="Grupo 373" transform="translate(6.939 26.209)">
      <g id="Grupo_372" data-name="Grupo 372">
        <rect id="Ret창ngulo_1672" data-name="Ret창ngulo 1672" width="3.083" height="1.542" fill="#333"/>
      </g>
    </g>
    <g id="Grupo_375" data-name="Grupo 375" transform="translate(6.939 29.292)">
      <g id="Grupo_374" data-name="Grupo 374">
        <rect id="Ret창ngulo_1673" data-name="Ret창ngulo 1673" width="4.625" height="1.542" fill="#333"/>
      </g>
    </g>
    <g id="Grupo_377" data-name="Grupo 377" transform="translate(0.002)">
      <g id="Grupo_376" data-name="Grupo 376" transform="translate(0)">
        <path id="Caminho_128" data-name="Caminho 128" d="M36.308,32.963l-8.556-8.557V5.4A2.313,2.313,0,0,0,25.44,3.083H9.946a3.855,3.855,0,0,0-7.554,0H2.315A2.313,2.313,0,0,0,0,5.4V34.688A2.313,2.313,0,0,0,2.315,37H25.44a2.313,2.313,0,0,0,2.313-2.313V31.094l5.213,5.213a2.364,2.364,0,1,0,3.343-3.343ZM6.169,1.542a2.313,2.313,0,0,1,2.18,1.542H3.988A2.313,2.313,0,0,1,6.169,1.542ZM26.211,34.688a.771.771,0,0,1-.771.771H2.315a.771.771,0,0,1-.771-.771V5.4a.771.771,0,0,1,.771-.771H8.481V13.1a.771.771,0,0,1-1.542,0V6.167H5.4V13.1a2.313,2.313,0,0,0,4.625,0V4.625H25.44a.771.771,0,0,1,.771.771V22.864L23.9,20.551V6.938a.771.771,0,0,0-.771-.771H11.565V7.708H22.356v11.47l-4.28-2.135a.765.765,0,0,0-.806.072v0l-2.188,1.639-1.233-4.317a.771.771,0,0,0-1.287-.334l-2.087,2.087H4.627a.771.771,0,0,0-.771.771V33.146a.771.771,0,0,0,.771.771h18.5a.771.771,0,0,0,.771-.771V27.24l2.313,2.312ZM20.2,20.937l-.743-1.485,1.485.743Zm2.16,4.762v6.677H5.4V17.729h5.4a.771.771,0,0,0,.544-.224l1.388-1.388,1.181,4.136a.771.771,0,0,0,1.2.405L17.453,18.9,19.3,22.586h0a.769.769,0,0,0,.143.2Zm-1.281-3.461,1.165-1.165L32.423,31.256l-1.165,1.165ZM35.22,35.218a.824.824,0,0,1-1.165,0l-1.707-1.707,1.165-1.165,1.707,1.707A.824.824,0,0,1,35.22,35.218Z" transform="translate(-0.002)" fill="#333"/>
      </g>
    </g>
  </g>
</svg>
