<svg xmlns="http://www.w3.org/2000/svg" width="43" height="35.41" viewBox="0 0 43 35.41">
  <g id="office-briefcase" transform="translate(0 -32.368)">
    <path id="Caminho_236" data-name="Caminho 236" d="M39.644,37.459H30.579V35.837a3.473,3.473,0,0,0-3.469-3.469H15.89a3.473,3.473,0,0,0-3.469,3.469v1.622H3.357A3.36,3.36,0,0,0,0,40.815V64.421a3.36,3.36,0,0,0,3.357,3.356H39.643A3.36,3.36,0,0,0,43,64.421V40.815A3.36,3.36,0,0,0,39.644,37.459ZM15.353,35.837a.538.538,0,0,1,.538-.538H27.11a.538.538,0,0,1,.538.538v1.622H15.353Zm-12,4.553H39.644a.426.426,0,0,1,.425.425v7.691c-4.542,1.685-11.393,2.68-18.581,2.68-7.172,0-14.014-.992-18.556-2.671v-7.7A.426.426,0,0,1,3.357,40.39ZM39.644,64.846H3.357a.426.426,0,0,1-.425-.425v-12.8a58.256,58.256,0,0,0,15.58,2.444c0,.017,0,.033,0,.051v.646a2.2,2.2,0,0,0,2.2,2.2h1.586a2.2,2.2,0,0,0,2.2-2.2v-.646c0-.017,0-.034,0-.051a58.16,58.16,0,0,0,15.581-2.451V64.421A.426.426,0,0,1,39.644,64.846Z" transform="translate(0)" fill="#333"/>
  </g>
</svg>
