<svg id="icon" xmlns="http://www.w3.org/2000/svg" width="20.903" height="20.9" viewBox="0 0 20.903 20.9">
  <path id="Caminho_67" data-name="Caminho 67" d="M17.719,13.013l-4.34-3.155a.523.523,0,0,0-.831.422v6.308a.522.522,0,0,0,.286.467.527.527,0,0,0,.238.056.52.52,0,0,0,.307-.1l4.34-3.152a.519.519,0,0,0,0-.844Z" transform="translate(-3.82 -2.972)" fill="#b1d249"/>
  <path id="Caminho_68" data-name="Caminho 68" d="M10.452,0A10.45,10.45,0,1,0,20.9,10.454,10.45,10.45,0,0,0,10.452,0Zm0,19.156a8.706,8.706,0,1,1,8.7-8.7A8.7,8.7,0,0,1,10.452,19.158Z" transform="translate(0 -0.002)" fill="#b1d249"/>
</svg>
