<svg xmlns="http://www.w3.org/2000/svg" width="19.436" height="16.005" viewBox="0 0 19.436 16.005">
  <g id="office-briefcase" transform="translate(0 -32.368)">
    <path id="Caminho_236" data-name="Caminho 236" d="M17.919,34.669h-4.1v-.733a1.57,1.57,0,0,0-1.568-1.568H7.182a1.57,1.57,0,0,0-1.568,1.568v.733h-4.1A1.519,1.519,0,0,0,0,36.186v10.67a1.519,1.519,0,0,0,1.517,1.517h16.4a1.519,1.519,0,0,0,1.517-1.517V36.186A1.519,1.519,0,0,0,17.919,34.669Zm-10.98-.733a.243.243,0,0,1,.243-.243h5.071a.243.243,0,0,1,.243.243v.733H6.939ZM1.517,35.994h16.4a.192.192,0,0,1,.192.192v3.477a25.9,25.9,0,0,1-8.4,1.211,25.943,25.943,0,0,1-8.388-1.207V36.186A.192.192,0,0,1,1.517,35.994Zm16.4,11.054H1.517a.192.192,0,0,1-.192-.192V41.071a26.332,26.332,0,0,0,7.042,1.1c0,.008,0,.015,0,.023v.292a.994.994,0,0,0,.993.993h.717a.994.994,0,0,0,.993-.993V42.2c0-.008,0-.015,0-.023a26.289,26.289,0,0,0,7.043-1.108v5.789A.193.193,0,0,1,17.919,47.048Z" transform="translate(0)" fill="#333"/>
  </g>
</svg>
