<svg xmlns="http://www.w3.org/2000/svg" width="20.333" height="30.674" viewBox="0 0 20.333 30.674">
  <g id="question-mark" transform="translate(-15.218 0.75)">
    <g id="Grupo_371" data-name="Grupo 371" transform="translate(16)">
      <path id="Caminho_127" data-name="Caminho 127" d="M32.029,2a11.6,11.6,0,0,0-6.962-2A9.746,9.746,0,0,0,19.69,1.407Q16.222,3.61,16,8.886h5.359a5.49,5.49,0,0,1,.9-2.962A3.313,3.313,0,0,1,25.3,4.5,3.452,3.452,0,0,1,28.3,5.656a4.325,4.325,0,0,1,.823,2.564,3.923,3.923,0,0,1-.9,2.24,4.7,4.7,0,0,1-1.072,1.092,24.267,24.267,0,0,0-4.182,3.361c-.74.869-.807,2.169-.872,4.035,0,.133.046.407.511.407h4.168a.459.459,0,0,0,.505-.442,4.882,4.882,0,0,1,.229-1.419A4.369,4.369,0,0,1,29.1,15.551l1.475-1.018a16,16,0,0,0,2.862-2.555A6.782,6.782,0,0,0,34.8,7.923,6.836,6.836,0,0,0,32.029,2ZM24.981,22.567a3.3,3.3,0,1,0-.191,6.605,3.176,3.176,0,0,0,3.469-3.181A3.215,3.215,0,0,0,24.981,22.567Z" transform="translate(-16 0)" fill="none" stroke="#333" stroke-width="1.5"/>
    </g>
  </g>
</svg>
