<svg id="Grupo_50" data-name="Grupo 50" xmlns="http://www.w3.org/2000/svg" width="22.998" height="27.373" viewBox="0 0 22.998 27.373">
  <g id="Grupo_49" data-name="Grupo 49" transform="translate(0)">
    <path id="Caminho_73" data-name="Caminho 73" d="M61.992,547.411c0-.006-.006-.017-.006-.022s-.006-.017-.006-.028-.006-.017-.006-.022-.006-.017-.011-.028-.006-.017-.006-.022a.169.169,0,0,0-.022-.045c-.006-.006-.006-.011-.011-.017s-.011-.017-.017-.028-.006-.011-.011-.017-.006-.011-.011-.017l-5.048-6.585-.006-.006c-.011-.011-.017-.022-.028-.034s-.006-.011-.011-.011a.15.15,0,0,0-.045-.039l-.006-.006c-.017-.011-.028-.022-.045-.034s-.011-.006-.017-.011a.249.249,0,0,0-.039-.022c-.006,0-.011-.006-.017-.006l-.039-.017c-.006,0-.011-.006-.017-.006a.1.1,0,0,0-.039-.011c-.006,0-.011-.006-.017-.006a.123.123,0,0,0-.045-.006H56.45c-.022,0-.039-.006-.062-.006H39.561a.563.563,0,0,0-.561.561v26.251a.563.563,0,0,0,.561.561H61.437a.563.563,0,0,0,.561-.561V547.461h0v-.017C62,547.433,61.992,547.422,61.992,547.411Zm-1.694-.46H56.961l-.011-4.364Zm.578,19.666H40.122v-25.13H55.828l.011,6.024a.563.563,0,0,0,.561.561h4.476Z" transform="translate(-39 -540.36)" fill="#333"/>
    <path id="Caminho_74" data-name="Caminho 74" d="M101.3,714.021a.563.563,0,0,0,.561.561h14.932a.561.561,0,1,0,0-1.122H101.861A.563.563,0,0,0,101.3,714.021Z" transform="translate(-97.805 -703.75)" fill="#333"/>
    <path id="Caminho_75" data-name="Caminho 75" d="M101.861,653.582h9.755a.561.561,0,0,0-.006-1.122h-9.749a.561.561,0,1,0,0,1.122Z" transform="translate(-97.805 -646.172)" fill="#333"/>
    <path id="Caminho_76" data-name="Caminho 76" d="M101.861,775.582h14.932a.561.561,0,1,0,0-1.122H101.861a.561.561,0,1,0,0,1.122Z" transform="translate(-97.805 -761.329)" fill="#333"/>
    <path id="Caminho_77" data-name="Caminho 77" d="M111.615,836.582a.561.561,0,0,0-.006-1.122h-9.749a.561.561,0,1,0,0,1.122Z" transform="translate(-97.805 -818.907)" fill="#333"/>
    <path id="Caminho_78" data-name="Caminho 78" d="M251.506,865.87l-4.723,4.173-1.363-1.823a.561.561,0,0,0-.9.673l1.728,2.311a.557.557,0,0,0,.393.224.191.191,0,0,0,.056.006h0a.552.552,0,0,0,.37-.146l5.177-4.577a.56.56,0,0,0-.74-.841Z" transform="translate(-232.889 -847.477)" fill="#333"/>
  </g>
</svg>
