<svg id="siren" xmlns="http://www.w3.org/2000/svg" width="29.943" height="29.943" viewBox="0 0 29.943 29.943">
  <path id="Caminho_141" data-name="Caminho 141" d="M92.754,128.9v9.859A2.636,2.636,0,0,0,91,141.235v2.632h19.3v-2.632a2.636,2.636,0,0,0-1.754-2.481V128.9a7.9,7.9,0,1,0-15.79,0Zm15.79,13.217H92.754v-.877a.878.878,0,0,1,.877-.877h14.036a.878.878,0,0,1,.877.877Zm-7.9-19.358a6.147,6.147,0,0,1,6.141,6.141V138.6H94.509V128.9A6.147,6.147,0,0,1,100.65,122.754Zm0,0" transform="translate(-85.678 -113.924)" fill="#333"/>
  <path id="Caminho_142" data-name="Caminho 142" d="M241,211h1.754v5.263H241Zm0,0" transform="translate(-226.906 -198.66)" fill="#333"/>
  <path id="Caminho_143" data-name="Caminho 143" d="M241,331h1.754v1.754H241Zm0,0" transform="translate(-226.906 -311.642)" fill="#333"/>
  <path id="Caminho_144" data-name="Caminho 144" d="M0,241H3.567v1.754H0Zm0,0" transform="translate(0 -226.906)" fill="#333"/>
  <path id="Caminho_145" data-name="Caminho 145" d="M451,241h3.567v1.754H451Zm0,0" transform="translate(-424.625 -226.906)" fill="#333"/>
  <path id="Caminho_146" data-name="Caminho 146" d="M385.758,65.078,387,66.319,384.518,68.8l-1.241-1.241Zm0,0" transform="translate(-360.862 -61.272)" fill="#333"/>
  <path id="Caminho_147" data-name="Caminho 147" d="M67.563,68.8l-2.481-2.481,1.24-1.241L68.8,67.563Zm0,0" transform="translate(-61.276 -61.276)" fill="#333"/>
  <path id="Caminho_148" data-name="Caminho 148" d="M241,0h1.754V3.567H241Zm0,0" transform="translate(-226.906)" fill="#333"/>
</svg>
