<svg xmlns="http://www.w3.org/2000/svg" width="26.698" height="23" viewBox="0 0 26.698 23">
  <path id="checked" d="M25.263,12.769l1.436,1.29L18.668,23l-5.222-4.971,1.331-1.4,3.783,3.6ZM24.7,5.454V8.505L22.774,10.6V5.454a.965.965,0,0,0-.965-.965H12.449a.8.8,0,0,0-.629.35l-.008.011-1.51,2.2H2.9a.965.965,0,0,0-.965.965V18.435A.966.966,0,0,0,2.9,19.4h7.191l2.028,1.93H2.9a2.9,2.9,0,0,1-2.9-2.9V2.9A2.9,2.9,0,0,1,2.9,0h7.443L11.82,2.223a.766.766,0,0,0,.641.337H21.81A2.894,2.894,0,0,1,24.7,5.454ZM10.393,3.531a2.682,2.682,0,0,1-.179-.237L9.305,1.93H2.9A.966.966,0,0,0,1.93,2.9V5.281A2.9,2.9,0,0,1,2.9,5.117H9.287l.931-1.354A2.7,2.7,0,0,1,10.393,3.531Zm0,0" fill="#333"/>
</svg>
