<svg xmlns="http://www.w3.org/2000/svg" width="29.729" height="29.729" viewBox="0 0 29.729 29.729">
  <g id="resume" transform="translate(-0.007)">
    <g id="Grupo_402" data-name="Grupo 402" transform="translate(0.007)">
      <g id="Grupo_401" data-name="Grupo 401" transform="translate(0)">
        <path id="Caminho_154" data-name="Caminho 154" d="M24.046,8.637a.581.581,0,0,0,.581-.581V1.742A1.744,1.744,0,0,0,22.885,0H1.749A1.744,1.744,0,0,0,.007,1.742V27.987a1.744,1.744,0,0,0,1.742,1.742H22.885a1.744,1.744,0,0,0,1.742-1.742V23.709a.581.581,0,1,0-1.161,0v4.278a.581.581,0,0,1-.581.581H1.749a.581.581,0,0,1-.581-.581V1.742a.581.581,0,0,1,.581-.581H22.885a.581.581,0,0,1,.581.581V8.056A.581.581,0,0,0,24.046,8.637Z" transform="translate(-0.007)" fill="#333"/>
      </g>
    </g>
    <g id="Grupo_404" data-name="Grupo 404" transform="translate(6.975 3.135)">
      <g id="Grupo_403" data-name="Grupo 403">
        <path id="Caminho_155" data-name="Caminho 155" d="M125.349,54a5.339,5.339,0,0,0-3.665,9.225.574.574,0,0,0,.062.058,5.332,5.332,0,0,0,7.205,0,.579.579,0,0,0,.062-.058A5.339,5.339,0,0,0,125.349,54Zm0,9.523a4.158,4.158,0,0,1-2.525-.852,2.9,2.9,0,0,1,5.051,0A4.158,4.158,0,0,1,125.349,63.523Zm-.929-4.413v-.377a.929.929,0,1,1,1.858,0v.377a.929.929,0,1,1-1.858,0Zm4.293,2.711A4.028,4.028,0,0,0,127,60.386a2.079,2.079,0,0,0,.437-1.277v-.377a2.09,2.09,0,0,0-4.181,0v.377a2.079,2.079,0,0,0,.437,1.277,4.028,4.028,0,0,0-1.711,1.434,4.181,4.181,0,1,1,6.729,0Z" transform="translate(-120.007 -54)" fill="#333"/>
      </g>
    </g>
    <g id="Grupo_406" data-name="Grupo 406" transform="translate(11.736 25.432)">
      <g id="Grupo_405" data-name="Grupo 405">
        <path id="Caminho_156" data-name="Caminho 156" d="M205.723,438h-3.135a.581.581,0,1,0,0,1.161h3.135a.581.581,0,1,0,0-1.161Z" transform="translate(-202.007 -438)" fill="#333"/>
      </g>
    </g>
    <g id="Grupo_408" data-name="Grupo 408" transform="translate(6.626 22.181)">
      <g id="Grupo_407" data-name="Grupo 407">
        <path id="Caminho_157" data-name="Caminho 157" d="M122.833,382h-8.245a.581.581,0,1,0,0,1.161h8.245a.581.581,0,1,0,0-1.161Z" transform="translate(-114.007 -382)" fill="#333"/>
      </g>
    </g>
    <g id="Grupo_410" data-name="Grupo 410" transform="translate(6.626 18.929)">
      <g id="Grupo_409" data-name="Grupo 409">
        <path id="Caminho_158" data-name="Caminho 158" d="M122.833,326h-8.245a.581.581,0,0,0,0,1.161h8.245a.581.581,0,0,0,0-1.161Z" transform="translate(-114.007 -326)" fill="#333"/>
      </g>
    </g>
    <g id="Grupo_412" data-name="Grupo 412" transform="translate(4.146 15.677)">
      <g id="Grupo_411" data-name="Grupo 411">
        <path id="Caminho_159" data-name="Caminho 159" d="M72.279,270.17a.58.58,0,1,0,.17.411A.585.585,0,0,0,72.279,270.17Z" transform="translate(-71.287 -270)" fill="#333"/>
      </g>
    </g>
    <g id="Grupo_414" data-name="Grupo 414" transform="translate(4.146 18.929)">
      <g id="Grupo_413" data-name="Grupo 413">
        <path id="Caminho_160" data-name="Caminho 160" d="M72.279,326.17a.58.58,0,1,0,.17.411A.586.586,0,0,0,72.279,326.17Z" transform="translate(-71.287 -326)" fill="#333"/>
      </g>
    </g>
    <g id="Grupo_416" data-name="Grupo 416" transform="translate(4.146 22.181)">
      <g id="Grupo_415" data-name="Grupo 415">
        <path id="Caminho_161" data-name="Caminho 161" d="M72.279,382.17a.58.58,0,1,0,.17.411A.586.586,0,0,0,72.279,382.17Z" transform="translate(-71.287 -382)" fill="#333"/>
      </g>
    </g>
    <g id="Grupo_418" data-name="Grupo 418" transform="translate(6.626 15.677)">
      <g id="Grupo_417" data-name="Grupo 417">
        <path id="Caminho_162" data-name="Caminho 162" d="M122.833,270h-8.245a.581.581,0,1,0,0,1.161h8.245a.581.581,0,1,0,0-1.161Z" transform="translate(-114.007 -270)" fill="#333"/>
      </g>
    </g>
    <g id="Grupo_420" data-name="Grupo 420" transform="translate(17.286 7.239)">
      <g id="Grupo_419" data-name="Grupo 419">
        <path id="Caminho_163" data-name="Caminho 163" d="M308.82,125a2.439,2.439,0,0,0-3.331.893l-7.307,12.656a.582.582,0,0,0-.074.226l-.514,4.607a.581.581,0,0,0,.921.532l3.733-2.749a.579.579,0,0,0,.159-.177l7.307-12.656A2.442,2.442,0,0,0,308.82,125Zm-9.926,17.191.269-2.406,1.681.97Zm2.8-2.288-2.213-1.277,5.864-10.156,2.213,1.277Zm7.017-12.153-.572.991-2.213-1.277.572-.991a1.277,1.277,0,0,1,2.213,1.277Z" transform="translate(-297.589 -124.675)" fill="#333"/>
      </g>
    </g>
  </g>
</svg>
