<svg id="information_1_" data-name="information (1)" xmlns="http://www.w3.org/2000/svg" width="31.596" height="31.596" viewBox="0 0 31.596 31.596">
  <g id="Grupo_422" data-name="Grupo 422">
    <g id="Grupo_421" data-name="Grupo 421">
      <path id="Caminho_164" data-name="Caminho 164" d="M192.144,108.286a3.151,3.151,0,0,0,.173.318c.058.087.144.173.2.26a2.605,2.605,0,0,0,.289.26.973.973,0,0,0,.347.173,1.43,1.43,0,0,0,.375.116,1.776,1.776,0,0,0,.375.029,1.647,1.647,0,0,0,.375-.029,1.035,1.035,0,0,0,.318-.116h.029a2.154,2.154,0,0,0,.347-.2,1.867,1.867,0,0,0,.26-.231l.029-.029a1.587,1.587,0,0,0,.2-.26.9.9,0,0,0,.144-.289c0-.029,0-.029.029-.058a1.868,1.868,0,0,0,.116-.375,2.453,2.453,0,0,0,0-.751,2.681,2.681,0,0,0-.116-.375,1.639,1.639,0,0,0-.347-.52l-.058-.058a2.525,2.525,0,0,0-.289-.231c-.116-.058-.2-.116-.318-.173a1.629,1.629,0,0,0-.347-.116,1.777,1.777,0,0,0-.375-.029,1.647,1.647,0,0,0-.375.029,1.629,1.629,0,0,0-.347.116h-.029a3.154,3.154,0,0,0-.318.173,2.525,2.525,0,0,0-.289.231,1.868,1.868,0,0,0-.231.26,3.149,3.149,0,0,0-.173.318,1.627,1.627,0,0,0-.116.347,1.775,1.775,0,0,0-.029.375,1.646,1.646,0,0,0,.029.375A2.621,2.621,0,0,0,192.144,108.286Z" transform="translate(-178.137 -97.975)" fill="#333"/>
      <path id="Caminho_165" data-name="Caminho 165" d="M182.8,188.627h-.664v-7.076a.746.746,0,0,0-.751-.751h-3.033a.746.746,0,0,0-.751.751v1.56a.746.746,0,0,0,.751.751h.606v4.794h-.606a.746.746,0,0,0-.751.751v1.56a.746.746,0,0,0,.751.751H182.8a.746.746,0,0,0,.751-.751v-1.56A.771.771,0,0,0,182.8,188.627Z" transform="translate(-164.777 -167.746)" fill="#333"/>
      <path id="Caminho_166" data-name="Caminho 166" d="M15.8,0A15.8,15.8,0,1,0,31.6,15.8,15.8,15.8,0,0,0,15.8,0Zm0,29.516A13.718,13.718,0,1,1,29.516,15.8,13.731,13.731,0,0,1,15.8,29.516Z" fill="#333"/>
    </g>
  </g>
</svg>
