<svg xmlns="http://www.w3.org/2000/svg" width="34.728" height="34.721" viewBox="0 0 34.728 34.721">
  <g id="teeth" transform="translate(0 -0.1)">
    <path id="Caminho_129" data-name="Caminho 129" d="M2.771,18.138c.321.531.653,1.079.949,1.635A14,14,0,0,1,5.4,24.8a37.864,37.864,0,0,0,1.012,5.963c.381,1.417,1.093,4.056,3.359,4.056,1.777,0,3.152-3.4,4.085-10.09.314-2.218,1.273-2.435,1.755-2.494a.332.332,0,0,1,.053.011c.032.09.064.18.1.268a12.719,12.719,0,0,0,1.022,1.934c.2.326.4.653.578.994a8.4,8.4,0,0,1,1.009,3.014,28.547,28.547,0,0,0,.469,3.039.3.3,0,0,0,.005.041c.005.014.009.024.014.037.045.2.086.392.141.586.231.864.716,2.662,2.282,2.662.5,0,1.842,0,2.734-6.4.164-1.157.6-1.3.86-1.342l.072.013c.173.036.636.13.81,1.331.89,6.4,2.228,6.4,2.731,6.4,1.562,0,2.03-1.731,2.281-2.656a23.76,23.76,0,0,0,.631-3.708,8.419,8.419,0,0,1,1.013-3.017c.182-.344.382-.674.578-1a12.54,12.54,0,0,0,1.014-1.925c.971-2.464,1.23-5.84-.953-7.927a5.538,5.538,0,0,0-2.361-1.314c1.184-4.355.441-8.326-2.043-10.708C25.31-.646,19.352-.712,15.629,2.32,11.906-.712,5.949-.646,2.6,2.564-.8,5.829-.387,11.157,1.141,15.054A20.33,20.33,0,0,0,2.771,18.138Zm30.162,3.954a11.6,11.6,0,0,1-.926,1.75c-.211.347-.421.694-.612,1.057a9.563,9.563,0,0,0-1.142,3.43,22.875,22.875,0,0,1-.6,3.529c-.239.873-.544,1.805-1.155,1.805-.231-.071-1.015-1.218-1.6-5.406-.191-1.331-.771-2.107-1.726-2.3a2.212,2.212,0,0,0-.228-.038.354.354,0,0,1-.131,0c-1.089.121-1.745.908-1.947,2.34-.584,4.191-1.371,5.337-1.588,5.406-.627,0-.93-.931-1.166-1.809a22.978,22.978,0,0,1-.595-3.529,9.5,9.5,0,0,0-1.14-3.43c-.191-.359-.4-.7-.609-1.049a11.708,11.708,0,0,1-.931-1.755c-.83-2.116-1.088-4.98.677-6.671a5.394,5.394,0,0,1,6.977.061c.17.166,2.352,2.247,4.309,2.247a.579.579,0,0,0,0-1.157,5.771,5.771,0,0,1-3.012-1.487,5.693,5.693,0,0,1,4.087-.824,4.508,4.508,0,0,1,2.377,1.162C34.028,17.116,33.729,20.071,32.934,22.092ZM3.405,3.4C6.4.527,12.035.574,15.237,3.494c.226.22,3.7,3.555,6.757,3.555a.579.579,0,0,0,0-1.157c-2.031,0-4.468-1.921-5.479-2.8C19.775.581,25.009.669,27.854,3.4c2.188,2.1,2.809,5.685,1.7,9.659a6.7,6.7,0,0,0-4.664,1.254,6.529,6.529,0,0,0-8.174.273c-1.79,1.715-1.933,4.3-1.389,6.538-1.444.264-2.327,1.414-2.615,3.445-1.006,7.194-2.365,9.095-2.943,9.095-1.273,0-1.824-1.651-2.243-3.2a37.669,37.669,0,0,1-.978-5.786,15.105,15.105,0,0,0-1.812-5.446c-.31-.583-.651-1.145-.983-1.689a19.19,19.19,0,0,1-1.543-2.907C.827,11.083.408,6.269,3.405,3.4Zm0,0" transform="translate(0 0)" fill="#333"/>
    <path id="Caminho_130" data-name="Caminho 130" d="M36.556,66.079a.579.579,0,0,0,.558-.731c-1.292-4.736,1.727-6.3,1.864-6.367a.579.579,0,0,0-.5-1.041c-.039.019-4.031,2.01-2.478,7.713A.579.579,0,0,0,36.556,66.079Zm0,0" transform="translate(-33.222 -53.871)" fill="#333"/>
    <path id="Caminho_131" data-name="Caminho 131" d="M103.657,43.442a.579.579,0,1,1-.579-.578A.579.579,0,0,1,103.657,43.442Zm0,0" transform="translate(-95.55 -39.864)" fill="#333"/>
    <path id="Caminho_132" data-name="Caminho 132" d="M258.412,234.321c-.888.5-2.3,2.218-1.3,5.107a.579.579,0,1,0,1.093-.38c-.926-2.661.7-3.675.78-3.722a.579.579,0,0,0-.575-1Zm0,0" transform="translate(-239.358 -218.269)" fill="#333"/>
    <path id="Caminho_133" data-name="Caminho 133" d="M299.923,222.641a.579.579,0,1,1-.578-.579A.579.579,0,0,1,299.923,222.641Zm0,0" transform="translate(-278.508 -206.913)" fill="#333"/>
  </g>
</svg>
