<svg xmlns="http://www.w3.org/2000/svg" xmlns:xlink="http://www.w3.org/1999/xlink" width="127.612" height="23.8" viewBox="0 0 127.612 23.8">
  <defs>
    <clipPath id="clip-path">
      <rect width="127.613" height="23.8" fill="none"/>
    </clipPath>
  </defs>
  <g id="logo_slogan_market_TRINTO" data-name="logo+slogan_market_TRINTO" clip-path="url(#clip-path)">
    <g id="logo_slogan_market_TRINTO-2" data-name="logo+slogan_market_TRINTO" transform="translate(63.806 11.8)">
      <g id="logo_slogan_market_TRINTO-3" data-name="logo+slogan_market_TRINTO" transform="translate(-63.806 -11.8)">
        <path id="Caminho_94" data-name="Caminho 94" d="M18.4,4.9V7.2h-.5a5.8,5.8,0,0,0-3.5,1.5,6.6,6.6,0,0,0-1.7,4.7c0,.1,0,.1,0,.2v10H10.3v-10A9,9,0,0,1,12.7,7,7.6,7.6,0,0,1,18,4.9h.4M40.3,7A7.6,7.6,0,0,0,35,4.8h-.9A7.6,7.6,0,0,0,28.9,7a9,9,0,0,0-2.3,6.5v10h2.3V13.3a6.6,6.6,0,0,1,1.7-4.7A5.8,5.8,0,0,1,34,7.1h1.1a5.8,5.8,0,0,1,3.5,1.5,6.6,6.6,0,0,1,1.7,4.7V23.5h2.3v-10A9,9,0,0,0,40.3,7m31.3,6.5v1.4a9,9,0,0,1-2.3,6.5h0A7.6,7.6,0,0,1,64,23.5H63a7.7,7.7,0,0,1-5.3-2.1h0a9,9,0,0,1-2.3-6.5V13.5A9,9,0,0,1,57.8,7h0A7.6,7.6,0,0,1,63,4.9h.9A7.7,7.7,0,0,1,69.2,7h0a9,9,0,0,1,2.3,6.5m-2.4-.1a6.6,6.6,0,0,0-1.7-4.7A5.9,5.9,0,0,0,64,7.2H62.9a5.9,5.9,0,0,0-3.5,1.5,6.6,6.6,0,0,0-1.7,4.7c0,.1,0,.1,0,.2V15a6.6,6.6,0,0,0,1.7,4.7,5.9,5.9,0,0,0,3.5,1.5H64a5.9,5.9,0,0,0,3.5-1.5A6.6,6.6,0,0,0,69.2,15c0-.1,0-.1,0-.2ZM7.5,21.2A5.8,5.8,0,0,1,4,19.7,6.6,6.6,0,0,1,2.3,15c0-.1,0-.1,0-.2V7.2H8V4.9H2.3V0H0V14.9a9,9,0,0,0,2.3,6.5,7.6,7.6,0,0,0,5.3,2.1H8V21.2H7.5m45,0a5.8,5.8,0,0,1-3.4-1.5A6.6,6.6,0,0,1,47.4,15V7.2H53V4.9H47.4V0H45V14.9a9,9,0,0,0,2.3,6.5,7.6,7.6,0,0,0,5.3,2.1H53V21.2h-.5M23.6,4.9H21.3V23.6h2.3Z" transform="translate(0.013)" fill="#030504"/>
        <text id="digital_performance" data-name="digital 
performance" transform="translate(80.613 12.8)" fill="#1a1818" font-size="9" font-family="SegoeUI, Segoe UI" letter-spacing="-0.04em"><tspan x="0" y="0">di</tspan><tspan y="0" letter-spacing="-0.05em">g</tspan><tspan y="0">ital </tspan><tspan x="0" y="8.4">pe</tspan><tspan y="8.4" letter-spacing="-0.01em">r</tspan><tspan y="8.4" letter-spacing="-0.05em">f</tspan><tspan y="8.4">orman</tspan><tspan y="8.4" letter-spacing="-0.05em">c</tspan><tspan y="8.4">e</tspan></text>
      </g>
    </g>
  </g>
</svg>
