<svg xmlns="http://www.w3.org/2000/svg" width="18.973" height="15.412" viewBox="0 0 18.973 15.412"><defs><style>.a{fill:#333;}</style></defs><g transform="translate(0 0)"><path class="a" d="M18.974,59.264a7.773,7.773,0,0,1-2.235.613,3.908,3.908,0,0,0,1.711-2.152,7.847,7.847,0,0,1-2.473.945,3.9,3.9,0,0,0-6.632,3.548,11.05,11.05,0,0,1-8.022-4.067,3.9,3.9,0,0,0,1.2,5.2,3.892,3.892,0,0,1-1.763-.488v.049a3.9,3.9,0,0,0,3.122,3.816,3.942,3.942,0,0,1-1.026.136,3.736,3.736,0,0,1-.733-.072,3.894,3.894,0,0,0,3.635,2.7A7.809,7.809,0,0,1,.929,71.155,8.271,8.271,0,0,1,0,71.1a11,11,0,0,0,5.966,1.751A11,11,0,0,0,17.04,61.779l-.013-.5A7.772,7.772,0,0,0,18.974,59.264Z" transform="translate(-0.001 -57.441)"/></g></svg>