<svg xmlns="http://www.w3.org/2000/svg" width="14.996" height="16.424" viewBox="0 0 14.996 16.424"><defs><style>.a{fill:#333;}</style></defs><g transform="translate(-3 -1)"><path class="a" d="M16.928,9.569a3.932,3.932,0,0,0,3.928-3.928V4.928a3.928,3.928,0,1,0-7.855,0v.714A3.932,3.932,0,0,0,16.928,9.569Z" transform="translate(-6.43)"/><path class="a" d="M15.953,29.78a19.461,19.461,0,0,0-10.91,0A2.839,2.839,0,0,0,3,32.519V35.07a.357.357,0,0,0,.357.357H17.639A.357.357,0,0,0,18,35.07V32.519A2.839,2.839,0,0,0,15.953,29.78Z" transform="translate(0 -18.003)"/></g></svg>