<svg xmlns="http://www.w3.org/2000/svg" width="24.061" height="24.058" viewBox="0 0 24.061 24.058"><defs><style>.a{fill:#b1d249;}</style></defs><path class="a" d="M18.5,13.505l-5-3.632a.6.6,0,0,0-.957.486v7.261a.6.6,0,0,0,.329.537.607.607,0,0,0,.274.065.6.6,0,0,0,.354-.117l5-3.629a.6.6,0,0,0,0-.972Z" transform="translate(-2.501 -1.947)"/><path class="a" d="M12.031,0a12.029,12.029,0,1,0,12.03,12.031A12.029,12.029,0,0,0,12.031,0Zm0,22.05a10.021,10.021,0,1,1,10.02-10.02A10.02,10.02,0,0,1,12.031,22.052Z" transform="translate(0 -0.002)"/></svg>