<svg xmlns="http://www.w3.org/2000/svg" width="29" height="29.027" viewBox="0 0 29 29.027"><defs><style>.a{fill:#333;}</style></defs><g transform="translate(-0.238)"><g transform="translate(3.934 11.443)"><path class="a" d="M68.848,201.836a3.412,3.412,0,1,0,3.412,3.412A3.416,3.416,0,0,0,68.848,201.836Zm0,5.118a1.706,1.706,0,1,1,1.706-1.706A1.708,1.708,0,0,1,68.848,206.954Z" transform="translate(-65.436 -201.836)"/></g><g transform="translate(15.364 12.314)"><rect class="a" width="3.411" height="1.706"/></g><g transform="translate(20.481 12.314)"><rect class="a" width="3.411" height="1.706"/></g><g transform="translate(15.364 15.726)"><rect class="a" width="3.411" height="1.706"/></g><g transform="translate(20.481 15.726)"><rect class="a" width="3.411" height="1.706"/></g><g transform="translate(15.364 5.569)"><rect class="a" width="3.411" height="1.706"/></g><g transform="translate(20.481 5.569)"><rect class="a" width="3.411" height="1.706"/></g><g transform="translate(15.364 8.98)"><rect class="a" width="3.411" height="1.706"/></g><g transform="translate(20.481 8.98)"><rect class="a" width="3.411" height="1.706"/></g><g transform="translate(0.238)"><g transform="translate(0)"><path class="a" d="M25.826,1.709V0H13.317V1.717H9.848V8.2a7.108,7.108,0,0,0-9.61,6.653c0,1.605,1.06,4.238,3.24,8.047,1.562,2.729,3.147,5.065,3.162,5.088l.705,1.037.705-1.037c.013-.019,1.042-1.537,2.259-3.552H29.238V1.72h0ZM7.346,25.966c-1.975-3.044-5.4-8.8-5.4-11.112a5.4,5.4,0,0,1,10.8,0C12.748,17.162,9.321,22.922,7.346,25.966Zm20.186-3.234h-7.05V19.206H18.776v3.526H11.31c2.115-3.717,3.144-6.3,3.144-7.877a7.1,7.1,0,0,0-2.9-5.725V3.423h3.468V1.706h9.1v1.7l3.411.012Z" transform="translate(-0.238)"/></g></g></g></svg>