<svg xmlns="http://www.w3.org/2000/svg" width="29.353" height="25.172" viewBox="0 0 29.353 25.172">
  <g id="warning" transform="translate(0 -5.595)">
    <g id="Grupo_398" data-name="Grupo 398" transform="translate(0 5.595)">
      <circle id="Elipse_27" data-name="Elipse 27" cx="1.357" cy="1.357" r="1.357" transform="translate(13.319 18.138)" fill="#333"/>
      <path id="Caminho_149" data-name="Caminho 149" d="M37.539,33.94a.748.748,0,0,0,.747-.747v-7.1a.747.747,0,1,0-1.495,0v7.1A.748.748,0,0,0,37.539,33.94Z" transform="translate(-23.045 -17.967)" fill="#333"/>
      <path id="Caminho_150" data-name="Caminho 150" d="M17.4,7.817l-.034-.053c-.692-1.066-1.407-2.169-2.69-2.169-1.337,0-2.036,1.119-2.713,2.2l-.028.044L.1,27.89A.516.516,0,0,0,0,28.2a2.568,2.568,0,0,0,2.611,2.568H26.742A2.568,2.568,0,0,0,29.353,28.2a.627.627,0,0,0-.1-.344Zm9.342,21.455H2.611a1.082,1.082,0,0,1-1.1-.894L13.231,8.553c.581-.929.961-1.481,1.445-1.481s.918.7,1.436,1.5l11.732,19.8A1.085,1.085,0,0,1,26.742,29.272Z" transform="translate(0 -5.595)" fill="#333"/>
    </g>
  </g>
</svg>
