<svg xmlns="http://www.w3.org/2000/svg" width="17" height="17" viewBox="0 0 17 17"><defs><style>.a{fill:#333;}</style></defs><path class="a" d="M17,8.281A8.359,8.359,0,0,1,4.62,15.532L0,17l1.506-4.443a8.194,8.194,0,0,1-1.2-4.276A8.346,8.346,0,0,1,17,8.281ZM8.655,1.319A7,7,0,0,0,1.638,8.281a6.889,6.889,0,0,0,1.337,4.082L2.1,14.949l2.7-.857a7.023,7.023,0,0,0,10.877-5.81A7,7,0,0,0,8.655,1.319Zm4.214,8.869c-.052-.084-.188-.135-.392-.237s-1.211-.593-1.4-.66-.324-.1-.461.1-.528.66-.648.8-.239.153-.443.051A5.6,5.6,0,0,1,7.882,9.232,6.12,6.12,0,0,1,6.744,7.827c-.119-.2-.012-.313.09-.414s.2-.237.307-.355a1.361,1.361,0,0,0,.2-.339.37.37,0,0,0-.017-.356c-.051-.1-.461-1.1-.631-1.507s-.341-.338-.46-.338S5.982,4.5,5.845,4.5a.755.755,0,0,0-.546.254,2.27,2.27,0,0,0-.716,1.693,3.928,3.928,0,0,0,.835,2.1,8.362,8.362,0,0,0,3.494,3.064c2.08.812,2.08.541,2.455.507a2.069,2.069,0,0,0,1.381-.965A1.692,1.692,0,0,0,12.869,10.188Z"/></svg>