<svg xmlns="http://www.w3.org/2000/svg" width="15.676" height="14" viewBox="0 0 15.676 14"><defs><style>.a{fill:#333;}</style></defs><path class="a" d="M28.079,20.65c-.2-.415-1.081-.759-1.518-.907l-.441-.36a.345.345,0,0,0-.071-.044,5.181,5.181,0,0,0-1.37-.275,3.77,3.77,0,0,0-.766-.322,3.472,3.472,0,0,0-1.283.2.348.348,0,0,0-.156.095c-.331.357-1.1,1.239-1.1,1.716,0,.267.264.488.569.745a2.55,2.55,0,0,1,.35.328,2.937,2.937,0,0,0,.061.307c.054.232.167.714.054.87a2.258,2.258,0,0,0-.222,1.959.886.886,0,0,0,.609.553.949.949,0,0,0,.23.027,3.681,3.681,0,0,0,1.66-.7,4.429,4.429,0,0,1,.593-.331c.5-.173.723-.723.89-1.124a2.177,2.177,0,0,1,.109-.24,2.427,2.427,0,0,1,.914-.639C27.746,22.259,28.33,21.183,28.079,20.65Z" transform="translate(-14.431 -13.331)"/><path class="a" d="M8.838,1C4.516,1,1,4.14,1,8s3.516,7,7.838,7,7.838-3.14,7.838-7S13.16,1,8.838,1Zm0,13.391a7.661,7.661,0,0,1-4.511-1.436l.426-.57a1.242,1.242,0,0,0,.656-.4c.357-.574-.066-1.395-.211-1.642a2.431,2.431,0,0,0-.133-.66,1.644,1.644,0,0,0-.756-.569A2.812,2.812,0,0,1,3.833,8a.506.506,0,0,1,.527-.5,1.725,1.725,0,0,0,1.074-.628,1.828,1.828,0,0,0,.974-.548c.2-.314.015-.972-.135-1.385a1.581,1.581,0,0,0-.038-.845,1.678,1.678,0,0,0-.58-.67,3.949,3.949,0,0,0-.57-.856A7.642,7.642,0,0,1,7.674,1.7a.746.746,0,0,0-.072.583,1.2,1.2,0,0,0,.717.5.942.942,0,0,0,.307.908,1.2,1.2,0,0,0,1.009.076l.007,0a5.473,5.473,0,0,1,.027.838.286.286,0,0,0,.088.215,2.909,2.909,0,0,0,1.43.782.928.928,0,0,0,.117.007,2.939,2.939,0,0,0,1.642-.877,14.662,14.662,0,0,0,1.689-.464A5.907,5.907,0,0,1,15.995,8C15.995,11.524,12.784,14.391,8.838,14.391Z" transform="translate(-1 -1)"/></svg>