<svg xmlns="http://www.w3.org/2000/svg" width="16.717" height="11.765" viewBox="0 0 16.717 11.765"><defs><style>.a{fill:#333;}</style></defs><g transform="translate(0 -45.917)"><path class="a" d="M16.065,46.927c-.6-.717-1.717-1.01-3.845-1.01H4.5c-2.176,0-3.309.311-3.91,1.075C0,47.737,0,48.834,0,50.352v2.894c0,2.942.7,4.435,4.5,4.435H12.22c1.845,0,2.867-.258,3.529-.891.678-.649.968-1.709.968-3.544V50.352C16.716,48.751,16.671,47.647,16.065,46.927ZM10.732,52.2,7.225,54.032a.539.539,0,0,1-.789-.478V49.9a.539.539,0,0,1,.788-.479l3.507,1.821a.539.539,0,0,1,0,.957Z"/></g></svg>